<svg xmlns="http://www.w3.org/2000/svg" width="27" height="27" viewBox="0 0 27 27">
  <metadata><?xpacket begin="﻿" id="W5M0MpCehiHzreSzNTczkc9d"?>
<x:xmpmeta xmlns:x="adobe:ns:meta/" x:xmptk="Adobe XMP Core 5.6-c138 79.159824, 2016/09/14-01:09:01        ">
   <rdf:RDF xmlns:rdf="http://www.w3.org/1999/02/22-rdf-syntax-ns#">
      <rdf:Description rdf:about=""/>
   </rdf:RDF>
</x:xmpmeta>
                                                                                                    
                                                                                                    
                                                                                                    
                                                                                                    
                                                                                                    
                                                                                                    
                                                                                                    
                                                                                                    
                                                                                                    
                                                                                                    
                                                                                                    
                                                                                                    
                                                                                                    
                                                                                                    
                                                                                                    
                                                                                                    
                                                                                                    
                                                                                                    
                                                                                                    
                                                                                                    
                           
<?xpacket end="w"?></metadata>
<defs>
    <style>
      .ico-instruct {
        fill: #6f1f71;
        fill-rule: evenodd;
      }
	  
	  a:hover .ico-instruct{
	    fill: #fff;
	  }
    </style>
  </defs>
  <path id="Forma_1" data-name="Forma 1" class="ico-instruct" d="M1044.65,479.2h-4.05v-6.75h4.05a0.449,0.449,0,0,0,.45-0.45v-2.219l0.89-6.267a0.442,0.442,0,0,0-.38-0.509,0.3,0.3,0,0,0-.06,0h-12.6a0.449,0.449,0,0,0-.45.45v0.064l0.9,6.267V472a0.449,0.449,0,0,0,.45.45h4.05v6.75h-0.45a1.35,1.35,0,1,0,0,2.7h0.45v0.9h-3.15l0.42-6.3h0.48a0.449,0.449,0,0,0,.45-0.45v-1.8a0.449,0.449,0,0,0-.45-0.45h-3.18a3.192,3.192,0,0,0-1.6-2.306,3.147,3.147,0,1,0-5.74-2.583,2.926,2.926,0,0,0-.25.866,4.493,4.493,0,0,0-4.95,3.983,0.06,0.06,0,0,1-.01.04h-0.47a0.449,0.449,0,0,0-.45.45v1.8a0.449,0.449,0,0,0,.45.45h0.48l0.87,13.079a0.45,0.45,0,0,0,.45.42h24.3a0.449,0.449,0,0,0,.45-0.45v-9A1.353,1.353,0,0,0,1044.65,479.2Zm-11.18-15.3h1.73v2.7h0.9v-2.7h0.9v0.9h0.9v-0.9h2.7v1.35h0.9V463.9h0.9v2.7h0.9v-2.7h1.73l-0.77,5.4h-10.02Zm0.83,7.65V470.2h9.9v1.35h-9.9Zm5.4,0.9v6.75h-0.9v-6.75h0.9Zm-4.5,2.25v0.9h-6.75v-0.9h6.75Zm-10.36-4.022c0.12,0.016.24,0.037,0.36,0.065h0.02a3.6,3.6,0,0,1,1.44.706l0.57-.7a4.5,4.5,0,0,0-1.46-.781,2.247,2.247,0,0,1,4.47.468,2.312,2.312,0,0,1-.37,1.017,0.454,0.454,0,0,0,.12.625,0.519,0.519,0,0,0,.1.05,2.249,2.249,0,0,1,1.46,1.671H1028a0.449,0.449,0,0,0-.45.45v4.05a0.45,0.45,0,1,1-.9,0v-0.9a1.35,1.35,0,1,0-2.7,0v3.15a0.45,0.45,0,0,1-.9,0v-6.3a0.449,0.449,0,0,0-.45-0.45h-1.77A3.592,3.592,0,0,1,1024.84,470.678Zm-4.94,4.922v-0.9h2.25v0.9h-2.25Zm11.7,8.55V489.1h-9.93l-0.84-12.6h1.32v4.05a1.35,1.35,0,1,0,2.7,0V477.4a0.45,0.45,0,1,1,.9,0v0.9a1.35,1.35,0,0,0,2.7,0v-1.8h5.82l-0.42,6.3h-0.9A1.348,1.348,0,0,0,1031.6,484.15Zm13.5,4.949h-1.35v-2.25h-0.9v2.25h-1.35v-2.25h-0.9v2.25h-1.35v-2.25h-0.9v2.25H1037v-2.25h-0.9v2.25h-1.35v-2.25h-0.9v2.25h-1.35v-3.6h12.6v3.6Zm0-4.5h-12.6v-0.45a0.449,0.449,0,0,1,.45-0.45h9.9a1.35,1.35,0,1,0,0-2.7h-5.4a0.45,0.45,0,1,1,0-.9h7.2a0.449,0.449,0,0,1,.45.45v4.05Zm-6.3-1.8v-0.9h0.9v0.9h-0.9Zm1.8,0v-0.9h2.25a0.45,0.45,0,1,1,0,.9h-2.25Zm-19.8-15.3v-0.9h-0.9v0.9H1019v0.9h0.9v0.9h0.9v-0.9h0.9v-0.9h-0.9Zm23.85,8.1v-0.9h-0.9v0.9h-0.9v0.9h0.9v0.9h0.9v-0.9h0.9v-0.9h-0.9Zm-17.1-11.7V463h-0.9v0.9h-0.9v0.9h0.9v0.9h0.9v-0.9h0.9v-0.9h-0.9Zm7.65,3.6h0.9v0.9h-0.9v-0.9Z" transform="translate(-1019 -463)"/>
</svg>
