<svg xmlns="http://www.w3.org/2000/svg" width="36" height="27" viewBox="0 0 36 27">
  <metadata><?xpacket begin="﻿" id="W5M0MpCehiHzreSzNTczkc9d"?>
<x:xmpmeta xmlns:x="adobe:ns:meta/" x:xmptk="Adobe XMP Core 5.6-c138 79.159824, 2016/09/14-01:09:01        ">
   <rdf:RDF xmlns:rdf="http://www.w3.org/1999/02/22-rdf-syntax-ns#">
      <rdf:Description rdf:about=""/>
   </rdf:RDF>
</x:xmpmeta>
                                                                                                    
                                                                                                    
                                                                                                    
                                                                                                    
                                                                                                    
                                                                                                    
                                                                                                    
                                                                                                    
                                                                                                    
                                                                                                    
                                                                                                    
                                                                                                    
                                                                                                    
                                                                                                    
                                                                                                    
                                                                                                    
                                                                                                    
                                                                                                    
                                                                                                    
                                                                                                    
                           
<?xpacket end="w"?></metadata>
<defs>
    <style>
      .cls-1 {
        fill: #6f1f71;
        fill-rule: evenodd;
      }
    </style>
  </defs>
  <path id="Forma_1" data-name="Forma 1" class="cls-1" d="M443,126v23.475h12.777v2.35H452.29V153h17.419v-1.174h-3.486v-2.35H479V126H443Zm13.932,25.832v-2.35h8.129v2.35h-8.129Zm20.906-3.525H444.162v-2.349h33.676v2.349Zm0-3.524H444.162V127.174h33.676v17.609Zm-17.419,1.762h1.162v1.175h-1.162v-1.175Zm2.324,0h1.162v1.175h-1.162v-1.175Zm-4.649,0h1.163v1.175h-1.163v-1.175Zm-5.775-8.16q0.211-.246,1.02-0.988a10.459,10.459,0,0,0,1.113-1.139,4.634,4.634,0,0,0,.68-1.146,3.137,3.137,0,0,0,.213-1.154,2.336,2.336,0,0,0-.751-1.776,2.841,2.841,0,0,0-2.063-.716,3.162,3.162,0,0,0-1.991.616,2.808,2.808,0,0,0-.95,2.034l1.694,0.172a1.714,1.714,0,0,1,.362-1.075,1.286,1.286,0,0,1,1.686-.014,1.2,1.2,0,0,1,.305.881,1.915,1.915,0,0,1-.347,1.053,12.657,12.657,0,0,1-1.411,1.469,11.012,11.012,0,0,0-1.906,2.149,4.2,4.2,0,0,0-.581,1.712h5.953v-1.6h-3.373A3.217,3.217,0,0,1,452.319,138.385Zm9.141-1.246v-5.681h-1.424l-3.841,5.689v1.5h3.629v1.8h1.636v-1.8h1.1v-1.512h-1.1Zm-1.644.008h-2.033l2.033-3.06v3.06Zm5.2-5.8-2.2,9.263h1.254l2.219-9.263h-1.276Zm1.786,0.272v1.6h3.862a12.9,12.9,0,0,0-1.913,3.452,11.727,11.727,0,0,0-.759,3.79h1.637a10.491,10.491,0,0,1,.383-2.694,12.225,12.225,0,0,1,1.134-2.844,9.362,9.362,0,0,1,1.46-2.048v-1.254h-5.8Z" transform="translate(-443 -126)"/>
</svg>
