<svg xmlns="http://www.w3.org/2000/svg" width="86" height="109" viewBox="0 0 86 109">
  <metadata><?xpacket begin="﻿" id="W5M0MpCehiHzreSzNTczkc9d"?>
<x:xmpmeta xmlns:x="adobe:ns:meta/" x:xmptk="Adobe XMP Core 5.6-c138 79.159824, 2016/09/14-01:09:01        ">
   <rdf:RDF xmlns:rdf="http://www.w3.org/1999/02/22-rdf-syntax-ns#">
      <rdf:Description rdf:about=""/>
   </rdf:RDF>
</x:xmpmeta>
                                                                                                    
                                                                                                    
                                                                                                    
                                                                                                    
                                                                                                    
                                                                                                    
                                                                                                    
                                                                                                    
                                                                                                    
                                                                                                    
                                                                                                    
                                                                                                    
                                                                                                    
                                                                                                    
                                                                                                    
                                                                                                    
                                                                                                    
                                                                                                    
                                                                                                    
                                                                                                    
                           
<?xpacket end="w"?></metadata>
<defs>
    <style>
      .cls-1 {
        fill: #6f1f71;
        fill-rule: evenodd;
      }
    </style>
  </defs>
  <path id="Ковры" class="cls-1" d="M986.737,368a2.078,2.078,0,0,0-2.263,1.816v3.633h-4.527v-3.633a2.318,2.318,0,0,0-4.526,0v3.633H970.9v-3.633a2.318,2.318,0,0,0-4.526,0v3.633h-4.527v-3.633a2.318,2.318,0,0,0-4.526,0v3.633h-4.527v-3.633a2.318,2.318,0,0,0-4.526,0v3.633h-4.526v-3.633a2.318,2.318,0,0,0-4.526,0v3.633h-4.527v-3.633a2.318,2.318,0,0,0-4.526,0v3.633h-4.527v-3.633a2.318,2.318,0,0,0-4.526,0v3.633h-4.526v-3.633a2.319,2.319,0,0,0-4.527,0v3.633h-4.526v-3.633a2.319,2.319,0,0,0-4.527,0V475.181a2.319,2.319,0,0,0,4.527,0v-3.632h4.526v3.633a2.318,2.318,0,0,0,4.526,0v-3.633h4.527v3.633a2.318,2.318,0,0,0,4.526,0v-3.633h4.526v3.633a2.318,2.318,0,0,0,4.526,0v-3.633h4.527v3.633a2.318,2.318,0,0,0,4.526,0v-3.633h4.527v3.633a2.318,2.318,0,0,0,4.526,0v-3.633h4.526v3.633a2.319,2.319,0,0,0,4.527,0v-3.633h4.526v3.633a2.319,2.319,0,0,0,4.527,0v-3.633h4.526v3.633a2.318,2.318,0,0,0,4.526,0v-3.633h4.526v3.633a2.319,2.319,0,0,0,4.527,0V369.815A2.078,2.078,0,0,0,986.737,368Zm-6.79,32.7v61.6a1.793,1.793,0,0,1-.778,1.515,4.558,4.558,0,0,1-2.716.465H914.315a2.079,2.079,0,0,1-2.263-1.816V382.532a2.078,2.078,0,0,1,2.263-1.817h63.369a2.078,2.078,0,0,1,2.263,1.817V400.7h0Zm-58.842-3.634a2.078,2.078,0,0,1,2.263-1.817h6.789V389.8a2.078,2.078,0,0,1,2.263-1.816h6.79v-3.633H916.578v18.166h4.527v-5.45h0Zm6.6,22.708,47.721,38.3V438.849h-6.789a2.077,2.077,0,0,1-2.263-1.817v-5.451h-6.79a2.077,2.077,0,0,1-2.263-1.816v-5.449h-6.79a2.077,2.077,0,0,1-2.263-1.817v-7.267a2.078,2.078,0,0,1,2.263-1.817h6.79v-5.449a2.078,2.078,0,0,1,2.263-1.817h6.79V400.7a2.077,2.077,0,0,1,2.263-1.817h6.789V384.349h-3.589Zm47.721,15.443v-32.7H970.9v5.451a2.079,2.079,0,0,1-2.263,1.815h-6.79v5.451a2.079,2.079,0,0,1-2.263,1.817h-6.79v3.632h6.79a2.078,2.078,0,0,1,2.263,1.817v5.45h6.79a2.079,2.079,0,0,1,2.263,1.817v5.45h4.526Zm-9.99-50.867h-21.7V389.8a2.078,2.078,0,0,1-2.263,1.817h-6.79v5.45a2.077,2.077,0,0,1-2.263,1.817h-6.789v5.449a2.077,2.077,0,0,1-2.263,1.817h-6.79v17.415l6.321-5.075Zm-26.221,65.4h-6.789a2.078,2.078,0,0,1-2.263-1.817v-5.45h-6.79a2.077,2.077,0,0,1-2.263-1.816v-5.449h-4.526v25.432h13.579V455.2a2.077,2.077,0,0,1,2.263-1.815h6.789v-3.635h0ZM916.579,428.7v2.88h6.789a2.078,2.078,0,0,1,2.263,1.817v5.451h6.79a2.077,2.077,0,0,1,2.263,1.816v5.45h6.789a2.078,2.078,0,0,1,2.263,1.816V455.2a2.078,2.078,0,0,1-2.263,1.816h-6.789v3.634h37.537L924.5,422.342Z" transform="translate(-903 -368)"/>
</svg>
