<svg xmlns="http://www.w3.org/2000/svg" width="71" height="65" viewBox="0 0 71 65">
  <metadata><?xpacket begin="﻿" id="W5M0MpCehiHzreSzNTczkc9d"?>
<x:xmpmeta xmlns:x="adobe:ns:meta/" x:xmptk="Adobe XMP Core 5.6-c138 79.159824, 2016/09/14-01:09:01        ">
   <rdf:RDF xmlns:rdf="http://www.w3.org/1999/02/22-rdf-syntax-ns#">
      <rdf:Description rdf:about=""/>
   </rdf:RDF>
</x:xmpmeta>
                                                                                                    
                                                                                                    
                                                                                                    
                                                                                                    
                                                                                                    
                                                                                                    
                                                                                                    
                                                                                                    
                                                                                                    
                                                                                                    
                                                                                                    
                                                                                                    
                                                                                                    
                                                                                                    
                                                                                                    
                                                                                                    
                                                                                                    
                                                                                                    
                                                                                                    
                                                                                                    
                           
<?xpacket end="w"?></metadata>
<defs>
    <style>
      .cls-1 {
        fill: #6f1f71;
        fill-rule: evenodd;
      }
    </style>
  </defs>
  <path id="Ковролин" class="cls-1" d="M167.317,397.625a1.54,1.54,0,0,0,0-2.139,1.462,1.462,0,0,0-2.094,0,1.54,1.54,0,0,0,0,2.139A1.46,1.46,0,0,0,167.317,397.625ZM221,426.788a1.5,1.5,0,0,0-1.48-1.51v-3.022a1.512,1.512,0,0,0,0-3.024v-3.024a1.511,1.511,0,0,0,0-3.021v-3.026a1.511,1.511,0,0,0,0-3.022v-3.023a1.513,1.513,0,0,0,0-3.026v-3.022a1.511,1.511,0,0,0,0-3.022v-3.024a1.512,1.512,0,0,0,0-3.023H164.79v0.028a28.758,28.758,0,0,0-9.529,1.852c-3.393,1.386-5.261,3.4-5.261,5.677v49.885c0,2.275,1.868,4.291,5.261,5.681a33.224,33.224,0,0,0,22.018,0c3.393-1.39,5.261-3.406,5.261-5.681h36.98a1.512,1.512,0,0,0,0-3.023v-3.024a1.512,1.512,0,0,0,0-3.023v-3.023a1.513,1.513,0,0,0,0-3.025V428.3A1.5,1.5,0,0,0,221,426.788Zm-64.639-33.1a30.376,30.376,0,0,1,19.82,0c2.038,0.835,3.367,1.945,3.4,2.836-0.052.346-.979,4.57-13.308,4.57s-13.258-4.224-13.312-4.57C152.994,395.629,154.32,394.519,156.361,393.684Zm23.224,52.757c0,0.9-1.337,2.026-3.4,2.872a30.359,30.359,0,0,1-19.82,0c-2.067-.846-3.4-1.973-3.4-2.872V401.179c2.78,1.949,7.252,2.937,13.312,2.937s10.53-.988,13.313-2.937v45.262Zm36.977-3.023H182.54v-9.07a1.466,1.466,0,0,0,1.049-.443,1.539,1.539,0,0,0,0-2.138,1.467,1.467,0,0,0-1.049-.444v-9.067a1.466,1.466,0,0,0,1.049-.443,1.54,1.54,0,0,0,0-2.139,1.465,1.465,0,0,0-1.049-.442v-9.071a1.458,1.458,0,0,0,1.049-.443,1.537,1.537,0,0,0,0-2.137,1.469,1.469,0,0,0-1.049-.442v-9.071a1.466,1.466,0,0,0,1.049-.443,1.54,1.54,0,0,0,0-2.139,1.46,1.46,0,0,0-1.326-.413,6.57,6.57,0,0,0-2.743-3.051h37.042v51.4h0Zm-60.214-38.86a1.54,1.54,0,0,0,0,2.139,1.465,1.465,0,0,0,2.094,0,1.54,1.54,0,0,0,0-2.139A1.458,1.458,0,0,0,156.348,404.558Zm5.92,6.046a1.53,1.53,0,0,0,0,2.139,1.46,1.46,0,0,0,2.091,0,1.534,1.534,0,0,0,0-2.139A1.458,1.458,0,0,0,162.268,410.6Zm8.008,8.184a1.534,1.534,0,0,0,0-2.136,1.457,1.457,0,0,0-2.093,0,1.536,1.536,0,0,0,0,2.136A1.457,1.457,0,0,0,170.276,418.788Zm-13.928-2.136a1.536,1.536,0,0,0,0,2.136,1.458,1.458,0,0,0,2.094,0,1.536,1.536,0,0,0,0-2.136A1.458,1.458,0,0,0,156.348,416.652Zm19.844,8.184a1.54,1.54,0,0,0,0-2.139,1.462,1.462,0,0,0-2.094,0,1.54,1.54,0,0,0,0,2.139A1.462,1.462,0,0,0,176.192,424.836ZM162.268,422.7a1.53,1.53,0,0,0,0,2.139,1.458,1.458,0,0,0,2.091,0,1.534,1.534,0,0,0,0-2.139A1.458,1.458,0,0,0,162.268,422.7Zm13.924-9.954a1.54,1.54,0,0,0,0-2.139,1.462,1.462,0,0,0-2.094,0,1.54,1.54,0,0,0,0,2.139A1.463,1.463,0,0,0,176.192,412.743Zm-5.916-6.046a1.538,1.538,0,0,0,0-2.139,1.457,1.457,0,0,0-2.093,0,1.54,1.54,0,0,0,0,2.139A1.464,1.464,0,0,0,170.276,406.7Zm-13.928,22.047a1.536,1.536,0,0,0,0,2.136,1.456,1.456,0,0,0,2.094,0,1.536,1.536,0,0,0,0-2.136A1.456,1.456,0,0,0,156.348,428.744Zm5.92,6.047a1.527,1.527,0,0,0,0,2.136,1.453,1.453,0,0,0,2.091,0,1.53,1.53,0,0,0,0-2.136A1.455,1.455,0,0,0,162.268,434.791Zm8.008,8.184a1.538,1.538,0,0,0,0-2.139,1.46,1.46,0,0,0-2.093,0,1.54,1.54,0,0,0,0,2.139A1.459,1.459,0,0,0,170.276,442.975Zm-13.928-2.139a1.54,1.54,0,0,0,0,2.139,1.46,1.46,0,0,0,2.094,0,1.54,1.54,0,0,0,0-2.139A1.462,1.462,0,0,0,156.348,440.836Zm19.844,8.185a1.536,1.536,0,0,0,0-2.136,1.455,1.455,0,0,0-2.094,0,1.536,1.536,0,0,0,0,2.136A1.458,1.458,0,0,0,176.192,449.021Zm-13.924-2.136a1.527,1.527,0,0,0,0,2.136,1.455,1.455,0,0,0,2.091,0,1.53,1.53,0,0,0,0-2.136A1.451,1.451,0,0,0,162.268,446.885Zm13.924-9.958a1.536,1.536,0,0,0,0-2.136,1.458,1.458,0,0,0-2.094,0,1.536,1.536,0,0,0,0,2.136A1.456,1.456,0,0,0,176.192,436.927Zm-5.916-6.047a1.534,1.534,0,0,0,0-2.136,1.455,1.455,0,0,0-2.093,0,1.536,1.536,0,0,0,0,2.136A1.455,1.455,0,0,0,170.276,430.88ZM189.5,403.673a1.534,1.534,0,0,0,0-2.139,1.458,1.458,0,0,0-2.091,0,1.536,1.536,0,0,0,0,2.139A1.458,1.458,0,0,0,189.5,403.673Zm5.917,6.045a1.535,1.535,0,0,0,0-2.137,1.459,1.459,0,0,0-2.093,0,1.537,1.537,0,0,0,0,2.137A1.455,1.455,0,0,0,195.421,409.718Zm5.916,6.047a1.536,1.536,0,0,0,0-2.139,1.46,1.46,0,0,0-2.091,0,1.534,1.534,0,0,0,0,2.139A1.451,1.451,0,0,0,201.337,415.765Zm-11.833,0a1.534,1.534,0,0,0,0-2.139,1.46,1.46,0,0,0-2.091,0,1.536,1.536,0,0,0,0,2.139A1.451,1.451,0,0,0,189.5,415.765Zm11.833-12.092a1.536,1.536,0,0,0,0-2.139,1.458,1.458,0,0,0-2.091,0,1.534,1.534,0,0,0,0,2.139A1.458,1.458,0,0,0,201.337,403.673Zm-5.916-6.048a1.538,1.538,0,0,0,0-2.139,1.46,1.46,0,0,0-2.093,0,1.54,1.54,0,0,0,0,2.139A1.459,1.459,0,0,0,195.421,397.625ZM189.5,427.859a1.532,1.532,0,0,0,0-2.137,1.453,1.453,0,0,0-2.091,0,1.534,1.534,0,0,0,0,2.137A1.456,1.456,0,0,0,189.5,427.859Zm5.917,6.046a1.537,1.537,0,0,0,0-2.138,1.459,1.459,0,0,0-2.093,0,1.539,1.539,0,0,0,0,2.138A1.46,1.46,0,0,0,195.421,433.905Zm5.916,6.046a1.534,1.534,0,0,0,0-2.137,1.455,1.455,0,0,0-2.091,0,1.532,1.532,0,0,0,0,2.137A1.455,1.455,0,0,0,201.337,439.951Zm-11.833,0a1.532,1.532,0,0,0,0-2.137,1.455,1.455,0,0,0-2.091,0,1.534,1.534,0,0,0,0,2.137A1.455,1.455,0,0,0,189.5,439.951Zm11.833-12.092a1.534,1.534,0,0,0,0-2.137,1.453,1.453,0,0,0-2.091,0,1.532,1.532,0,0,0,0,2.137A1.456,1.456,0,0,0,201.337,427.859Zm-5.916-6.046a1.538,1.538,0,0,0,0-2.139,1.46,1.46,0,0,0-2.093,0,1.54,1.54,0,0,0,0,2.139A1.459,1.459,0,0,0,195.421,421.813Zm11.833-12.095a1.534,1.534,0,0,0,0-2.137,1.456,1.456,0,0,0-2.091,0,1.532,1.532,0,0,0,0,2.137A1.453,1.453,0,0,0,207.254,409.718Zm5.917,6.047a1.538,1.538,0,0,0,0-2.139,1.462,1.462,0,0,0-2.093,0,1.54,1.54,0,0,0,0,2.139A1.454,1.454,0,0,0,213.171,415.765Zm0-12.092a1.538,1.538,0,0,0,0-2.139,1.46,1.46,0,0,0-2.093,0,1.54,1.54,0,0,0,0,2.139A1.46,1.46,0,0,0,213.171,403.673Zm-5.917-6.048a1.536,1.536,0,0,0,0-2.139,1.458,1.458,0,0,0-2.091,0,1.534,1.534,0,0,0,0,2.139A1.456,1.456,0,0,0,207.254,397.625Zm0,36.28a1.535,1.535,0,0,0,0-2.138,1.456,1.456,0,0,0-2.091,0,1.533,1.533,0,0,0,0,2.138A1.458,1.458,0,0,0,207.254,433.905Zm5.917,6.046a1.535,1.535,0,0,0,0-2.137,1.457,1.457,0,0,0-2.093,0,1.537,1.537,0,0,0,0,2.137A1.457,1.457,0,0,0,213.171,439.951Zm0-12.092a1.535,1.535,0,0,0,0-2.137,1.455,1.455,0,0,0-2.093,0,1.537,1.537,0,0,0,0,2.137A1.459,1.459,0,0,0,213.171,427.859Zm-5.917-6.046a1.536,1.536,0,0,0,0-2.139,1.458,1.458,0,0,0-2.091,0,1.534,1.534,0,0,0,0,2.139A1.456,1.456,0,0,0,207.254,421.813Z" transform="translate(-150 -389)"/>
</svg>
