<svg xmlns="http://www.w3.org/2000/svg" width="76" height="51" viewBox="0 0 76 51">
  <metadata><?xpacket begin="﻿" id="W5M0MpCehiHzreSzNTczkc9d"?>
<x:xmpmeta xmlns:x="adobe:ns:meta/" x:xmptk="Adobe XMP Core 5.6-c138 79.159824, 2016/09/14-01:09:01        ">
   <rdf:RDF xmlns:rdf="http://www.w3.org/1999/02/22-rdf-syntax-ns#">
      <rdf:Description rdf:about=""/>
   </rdf:RDF>
</x:xmpmeta>
                                                                                                    
                                                                                                    
                                                                                                    
                                                                                                    
                                                                                                    
                                                                                                    
                                                                                                    
                                                                                                    
                                                                                                    
                                                                                                    
                                                                                                    
                                                                                                    
                                                                                                    
                                                                                                    
                                                                                                    
                                                                                                    
                                                                                                    
                                                                                                    
                                                                                                    
                                                                                                    
                           
<?xpacket end="w"?></metadata>
<defs>
    <style>
      .cls-1 {
        fill: #6f1f71;
        fill-rule: evenodd;
      }
    </style>
  </defs>
  <path id="Коврики" class="cls-1" d="M974.739,580H915.261A8.393,8.393,0,0,0,907,588.5v34a8.392,8.392,0,0,0,8.261,8.5h59.478A8.392,8.392,0,0,0,983,622.5v-34A8.393,8.393,0,0,0,974.739,580Zm4.957,42.5a5.036,5.036,0,0,1-4.957,5.1H915.261a5.036,5.036,0,0,1-4.957-5.1v-1.7H979.7v1.7Zm0-5.1H910.3V593.6H979.7v23.8Zm0-27.2H910.3v-1.7a5.037,5.037,0,0,1,4.957-5.1h59.478a5.037,5.037,0,0,1,4.957,5.1v1.7Z" transform="translate(-907 -580)"/>
</svg>
