<svg xmlns="http://www.w3.org/2000/svg" width="31" height="84" viewBox="0 0 31 84">
  <metadata><?xpacket begin="﻿" id="W5M0MpCehiHzreSzNTczkc9d"?>
<x:xmpmeta xmlns:x="adobe:ns:meta/" x:xmptk="Adobe XMP Core 5.6-c138 79.159824, 2016/09/14-01:09:01        ">
   <rdf:RDF xmlns:rdf="http://www.w3.org/1999/02/22-rdf-syntax-ns#">
      <rdf:Description rdf:about=""/>
   </rdf:RDF>
</x:xmpmeta>
                                                                                                    
                                                                                                    
                                                                                                    
                                                                                                    
                                                                                                    
                                                                                                    
                                                                                                    
                                                                                                    
                                                                                                    
                                                                                                    
                                                                                                    
                                                                                                    
                                                                                                    
                                                                                                    
                                                                                                    
                                                                                                    
                                                                                                    
                                                                                                    
                                                                                                    
                                                                                                    
                           
<?xpacket end="w"?></metadata>
<defs>
    <style>
      .cls-1 {
        fill: #6f1f71;
        fill-rule: evenodd;
      }
    </style>
  </defs>
  <path id="Ковровые_дорожки" data-name="Ковровые дорожки" class="cls-1" d="M580.184,380a1.235,1.235,0,0,0-.816,1.4v2.8h-1.631v-2.8a0.938,0.938,0,1,0-1.632,0v2.8h-1.631v-2.8a0.938,0.938,0,1,0-1.632,0v2.8h-1.631v-2.8a0.938,0.938,0,1,0-1.632,0v2.8h-1.632v-2.8a0.938,0.938,0,1,0-1.631,0v2.8h-1.632v-2.8a0.938,0.938,0,1,0-1.631,0v2.8h-1.632v-2.8a0.938,0.938,0,1,0-1.632,0v2.8h-1.631v-2.8a0.938,0.938,0,1,0-1.632,0v2.8h-1.632v-2.8a0.938,0.938,0,1,0-1.631,0v2.8h-1.632v-2.8a0.938,0.938,0,1,0-1.631,0v81.2a0.938,0.938,0,1,0,1.631,0v-2.8h1.632v2.8a0.938,0.938,0,1,0,1.631,0v-2.8h1.632v2.8a0.938,0.938,0,1,0,1.632,0v-2.8h1.631v2.8a0.938,0.938,0,1,0,1.632,0v-2.8h1.632v2.8a0.938,0.938,0,1,0,1.631,0v-2.8h1.632v2.8a0.938,0.938,0,1,0,1.631,0v-2.8h1.632v2.8a0.938,0.938,0,1,0,1.631,0v-2.8h1.632v2.8a0.938,0.938,0,1,0,1.631,0v-2.8h1.632v2.8a0.938,0.938,0,1,0,1.632,0v-2.8h1.631v2.8a0.938,0.938,0,1,0,1.632,0V381.4A1.235,1.235,0,0,0,580.184,380Zm-28.553,7h27.737v70H551.631V387Zm25.29,67.2a0.51,0.51,0,0,0,.11-0.014l0.024-.006a0.588,0.588,0,0,0,.207-0.111l0.018-.013a0.725,0.725,0,0,0,.093-0.091h0a1,1,0,0,0,.084-0.113l0.019-.029a1.233,1.233,0,0,0,.07-0.125,0.079,0.079,0,0,0,0-.009,1.464,1.464,0,0,0,.06-0.145l0.015-.04c0.017-.053.034-0.107,0.048-0.162a0.009,0.009,0,0,1,0,0,0.08,0.08,0,0,1,0-.015q0.018-.076.03-0.159c0-.016,0-0.031.007-0.046q0.012-.087.018-0.177c0-.009,0-0.02,0-0.031,0-.035,0-0.071,0-0.109V391.2a1.235,1.235,0,0,0-.816-1.4H554.079a1.234,1.234,0,0,0-.816,1.4v61.6a1.235,1.235,0,0,0,.816,1.4h22.842Zm-22.027-22.4h1.632V436a1.235,1.235,0,0,0,.816,1.4h2.447v4.2a1.236,1.236,0,0,0,.816,1.4h2.448v2.8h-2.448a1.234,1.234,0,0,0-.816,1.4v4.2h-4.895V431.8h0Zm6.527,19.6v-2.8h2.447a1.235,1.235,0,0,0,.816-1.4v-5.6a1.234,1.234,0,0,0-.816-1.4h-2.447V436a1.235,1.235,0,0,0-.816-1.4h-2.447v-4.2a1.235,1.235,0,0,0-.816-1.4h-2.448v-2.22l2.856-4.9,17.2,29.521H561.421Zm12.237-25.2H571.21V422a1.234,1.234,0,0,0-.815-1.4h-2.448v-2.8H570.4a1.233,1.233,0,0,0,.815-1.4v-4.2h2.448a1.234,1.234,0,0,0,.815-1.4v-4.2h1.632v25.2h-1.632v-4.2A1.233,1.233,0,0,0,573.658,426.2Zm2.447-22.4h-2.447a1.235,1.235,0,0,0-.816,1.4v4.2H570.4a1.234,1.234,0,0,0-.816,1.4V415h-2.447a1.235,1.235,0,0,0-.816,1.4V422a1.235,1.235,0,0,0,.816,1.4h2.447v4.2a1.234,1.234,0,0,0,.816,1.4h2.447v4.2a1.234,1.234,0,0,0,.816,1.4h2.447v14.82L558.9,419.9l15.908-27.3h1.294v11.2h0Zm-18.932,15.11-2.279,3.91V409.4h2.448a1.236,1.236,0,0,0,.816-1.4v-4.2h2.447a1.236,1.236,0,0,0,.816-1.4v-4.2h2.447a1.235,1.235,0,0,0,.816-1.4v-4.2h7.82Zm5.88-26.31v2.8h-2.448a1.235,1.235,0,0,0-.816,1.4V401h-2.447a1.235,1.235,0,0,0-.816,1.4v4.2h-1.632v-14h8.159Z" transform="translate(-550 -380)"/>
</svg>
