<svg xmlns="http://www.w3.org/2000/svg" width="70" height="40" viewBox="0 0 70 40">
  <metadata><?xpacket begin="﻿" id="W5M0MpCehiHzreSzNTczkc9d"?>
<x:xmpmeta xmlns:x="adobe:ns:meta/" x:xmptk="Adobe XMP Core 5.6-c138 79.159824, 2016/09/14-01:09:01        ">
   <rdf:RDF xmlns:rdf="http://www.w3.org/1999/02/22-rdf-syntax-ns#">
      <rdf:Description rdf:about=""/>
   </rdf:RDF>
</x:xmpmeta>
                                                                                                    
                                                                                                    
                                                                                                    
                                                                                                    
                                                                                                    
                                                                                                    
                                                                                                    
                                                                                                    
                                                                                                    
                                                                                                    
                                                                                                    
                                                                                                    
                                                                                                    
                                                                                                    
                                                                                                    
                                                                                                    
                                                                                                    
                                                                                                    
                                                                                                    
                                                                                                    
                           
<?xpacket end="w"?></metadata>
<defs>
    <style>
      .cls-1 {
        fill: #6f1f71;
        fill-rule: evenodd;
      }
    </style>
  </defs>
  <path id="Искусственная_трава" data-name="Искусственная трава" class="cls-1" d="M596.066,591.76c2.962,11.493-.272,24-0.317,24.2,0.008-.061.08-0.961,0.08-0.961,0.95-7.72-1.365-12.074-1.365-12.074,1.562,6.68-1.321,10.488-3.011,12.074-0.634.6-1.105,1.1-1.105,1.1a8.3,8.3,0,0,1-.128-1.1c-1.137-9.427,4.243-21.434,4.243-21.434-3.442,3.077-5.527,13.092-6.444,18.6,1.093-9.287-.714-13.565-0.714-13.565a41.7,41.7,0,0,1-1.832,16.4c-0.189.569-.315,1.1-0.315,1.1a5.058,5.058,0,0,1-.24-1.1c-1.293-5.613-.654-19.456-0.654-19.456-1.284,3.229-2.056,9.864-2.469,14.68,0-8.165-2.542-13.061-2.542-13.061,2.684,10.442-.9,17.283-0.9,17.283,0.715-9.361-1.79-11.7-1.79-11.7,1.85,3.875-2.326,11.522-2.326,11.522-1.61-10.081,2.326-24.3,2.326-24.3-2.383,3.38-3.782,11.838-4.515,17.986-0.078-7.811-3.32-10.786-3.32-10.786,3.258,7.922-.038,17.643-0.038,17.643,0.359-9.36-1.969-13.862-1.969-13.862,0.293,4.132-3.018,11.522-4.222,14.056a8.86,8.86,0,0,0-.431,1.1,6.091,6.091,0,0,1-.181-1.1c-1.2-6.954,1.255-21.8,1.255-21.8-2.817,2.2-4.539,17.88-4.927,21.8-0.056.565-.084,1.1-0.084,1.1-0.017,0-.035-0.8-0.053-1.1-0.371-6.085-.33-12.837-0.33-12.837-1.184,1.307-2.117,13.937-2.123,13.937l0.031-1.1c0.77-15.727-2-20.9-2-20.9,1.356,7.726-1.092,17.876-1.9,20.9-0.152.569-.247,1.1-0.247,1.1a2.766,2.766,0,0,1-.462-1.1c-1.88-4.636.462-15.316,0.462-15.316-2.161,2.793-2.9,7.725-3.14,11.417,0.2-18.917-1.335-25.1-1.335-25.1,1.1,6.821-1.265,24.812-1.844,29-0.034.246-.03,0.22,0,0h-0.047c0.429-6.369-1.688-17.837-1.688-17.837,0,5-1.141,14.843-1.5,17.837-0.068.563-.109,1.1-0.109,1.1-0.183-.367-0.272-0.8-0.393-1.1-2.727-8.149.393-21.8,0.393-21.8-4.156,5.574-4.605,18.338-4.648,21.8,0,0.266,0,.339,0,0,0,0,.212,1.323-0.37,0-2-4.34.48-17.837,0.48-17.837-2.453,2.624-3.45,14.492-3.671,17.837-0.036.557-.081,1.1-0.081,1.1a6.976,6.976,0,0,1-.178-1.1c-1.947-11.488,3.824-24.21,3.824-24.21C531.481,594.387,530,616.1,530,616.1V626h70V615h0C600.012,594.846,596.066,591.76,596.066,591.76Z" transform="translate(-530 -586)"/>
</svg>
