<svg xmlns="http://www.w3.org/2000/svg" width="72" height="72" viewBox="0 0 72 72">
  <metadata><?xpacket begin="﻿" id="W5M0MpCehiHzreSzNTczkc9d"?>
<x:xmpmeta xmlns:x="adobe:ns:meta/" x:xmptk="Adobe XMP Core 5.6-c138 79.159824, 2016/09/14-01:09:01        ">
   <rdf:RDF xmlns:rdf="http://www.w3.org/1999/02/22-rdf-syntax-ns#">
      <rdf:Description rdf:about=""/>
   </rdf:RDF>
</x:xmpmeta>
                                                                                                    
                                                                                                    
                                                                                                    
                                                                                                    
                                                                                                    
                                                                                                    
                                                                                                    
                                                                                                    
                                                                                                    
                                                                                                    
                                                                                                    
                                                                                                    
                                                                                                    
                                                                                                    
                                                                                                    
                                                                                                    
                                                                                                    
                                                                                                    
                                                                                                    
                                                                                                    
                           
<?xpacket end="w"?></metadata>
<defs>
    <style>
      .cls-1 {
        fill: #6f1f71;
        fill-rule: evenodd;
      }
    </style>
  </defs>
  <path id="Линолеум" class="cls-1" d="M219.8,570H150.2a1.134,1.134,0,0,0-1.2,1.2v69.6a1.133,1.133,0,0,0,1.2,1.2h69.6a1.133,1.133,0,0,0,1.2-1.2v-6.841h0V620.4h0v-13.56h0V593.279c0-.017,0-0.034,0-0.051s0-.046,0-0.07V571.2A1.133,1.133,0,0,0,219.8,570Zm-9.36,52.92-1.9-1.9a1.242,1.242,0,0,0-.263-0.384l-5.94-5.94,5.039-5.039,11.221,11.22v10.2ZM183.08,639.6l-2.82-2.82,20.34-20.341,5.047,5.048-5.633,5.733a1.234,1.234,0,0,0-.374.259L187.52,639.6h-4.44Zm-23.4-67.081h7.08l16.8,16.8-4.792,4.793-0.227.227-14.421-14.5a1.253,1.253,0,0,0-.383-0.264l-5.617-5.617Zm51.24-.12,7.68,7.8v10.08l-16.32-16.32,1.56-1.56h7.08Zm7.68,45.12h0L208.457,607.3a1.281,1.281,0,0,0-.177-0.224l-5.94-5.94,5.04-5.04,11.22,11.221v10.2h0Zm-60.447-29.967,5.063-5.017,20.344,20.345-5.04,5.039-14.4-14.4Zm5.063,8.543,20.344,20.344-5.04,5.04-14.4-14.4-5.967-5.967Zm16.991,27.072,5.993-5.888,14.4-14.4,4.98,4.979L185.24,628.2Zm5.033-8.528-4.98-4.979,5.94-5.941,14.4-14.4,4.98,4.981Zm0-13.563-5.026-5.054L200.54,575.7l5.039,5.04ZM151.4,607.919l5.04-5.04,5.04,5.04L151.4,618V607.919h0Zm6.72,6.839,5.04-5.04,20.34,20.341-4.98,4.981-14.4-14.4a1.264,1.264,0,0,0-.383-0.262Zm-6.72-34.079,5.04-5.04,5.1,5.1-5.94,5.94h0l-4.2,4.2v-10.2h0Zm0,13.563,5.065-5.018,5.015,5.135-5.88,5.88-4.2,4.2v-10.2h0Zm0,27.236,5.04-4.919,5.04,5.039-5.88,5.88-4.2,4.2v-10.2h0Zm57.057-27.738a1.31,1.31,0,0,0-.177-0.221l-5.94-5.941,5.039-5.04L218.6,593.759v10.2ZM218.6,572.4v4.32l-4.32-4.32h4.32Zm-33.36,15.121-5.04-5.041,10.08-10.08h10.2ZM186.8,572.4l-8.34,8.34-8.34-8.34H186.8Zm-35.4,0h4.92l-0.72.722-4.2,4.2V572.4Zm0,62.643,5.065-5.018,5.075,5.075-4.5,4.5H151.4v-4.558Zm9.12,4.558,2.76-2.76,2.76,2.76h-5.52Zm9,0-11.247-11.367,5.024-4.979,14.383,14.306,2.04,2.04h-10.2ZM200.6,630l5.1,5.1-4.5,4.5H191Zm3.96,9.6,2.82-2.82,2.82,2.82h-5.64Zm14.04,0h-4.92l-5.4-5.4a1.232,1.232,0,0,0-.383-0.263l-5.617-5.617,5.1-5.1,11.22,11.22V639.6h0Z" transform="translate(-149 -570)"/>
</svg>
