<svg xmlns="http://www.w3.org/2000/svg" width="38" height="27" viewBox="0 0 38 27">
  <metadata><?xpacket begin="﻿" id="W5M0MpCehiHzreSzNTczkc9d"?>
<x:xmpmeta xmlns:x="adobe:ns:meta/" x:xmptk="Adobe XMP Core 5.6-c138 79.159824, 2016/09/14-01:09:01        ">
   <rdf:RDF xmlns:rdf="http://www.w3.org/1999/02/22-rdf-syntax-ns#">
      <rdf:Description rdf:about=""/>
   </rdf:RDF>
</x:xmpmeta>
                                                                                                    
                                                                                                    
                                                                                                    
                                                                                                    
                                                                                                    
                                                                                                    
                                                                                                    
                                                                                                    
                                                                                                    
                                                                                                    
                                                                                                    
                                                                                                    
                                                                                                    
                                                                                                    
                                                                                                    
                                                                                                    
                                                                                                    
                                                                                                    
                                                                                                    
                                                                                                    
                           
<?xpacket end="w"?></metadata>
<defs>
    <style>
      .cls-1 {
        fill: #fff;
        fill-rule: evenodd;
      }
    </style>
  </defs>
  <path id="Forma_1" data-name="Forma 1" class="cls-1" d="M156,3804v23.48h13.487v2.34h-3.68V3831h18.386v-1.18h-3.68v-2.34H194V3804H156Zm14.706,25.83v-2.35h8.58v2.35h-8.58Zm22.067-3.52H157.227v-2.35h35.546v2.35Zm0-3.53H157.227v-17.61h35.546v17.61Zm-18.386,1.77h1.226v1.17h-1.226v-1.17Zm2.453,0h1.227v1.17H176.84v-1.17Zm-4.907,0h1.227v1.17h-1.227v-1.17Zm-6.1-8.16a13.61,13.61,0,0,1,1.077-.99,11.9,11.9,0,0,0,1.174-1.14,4.485,4.485,0,0,0,.718-1.15,2.948,2.948,0,0,0,.225-1.15,2.281,2.281,0,0,0-.793-1.78,3.1,3.1,0,0,0-2.177-.71,3.456,3.456,0,0,0-2.1.61,2.757,2.757,0,0,0-1,2.04l1.787,0.17a1.69,1.69,0,0,1,.382-1.08,1.244,1.244,0,0,1,.89-0.32,1.214,1.214,0,0,1,.89.31,1.161,1.161,0,0,1,.322.88,1.855,1.855,0,0,1-.367,1.05,12.375,12.375,0,0,1-1.488,1.47,11.328,11.328,0,0,0-2.012,2.15,4.061,4.061,0,0,0-.614,1.71h6.284v-1.59H165.47A2.894,2.894,0,0,1,165.837,3816.39Zm9.649-1.25v-5.68h-1.5l-4.055,5.69v1.5h3.83v1.81h1.728v-1.81h1.16v-1.51h-1.16Zm-1.735.01H171.6l2.147-3.06v3.06Zm5.49-5.8-2.319,9.26h1.324l2.342-9.26h-1.347Zm1.885,0.27v1.6H185.2a12.752,12.752,0,0,0-2.02,3.45,11.177,11.177,0,0,0-.8,3.79h1.728a9.99,9.99,0,0,1,.4-2.69,11.763,11.763,0,0,1,1.2-2.84,9.286,9.286,0,0,1,1.541-2.05v-1.26h-6.127Z" transform="translate(-156 -3804)"/>
</svg>
