<svg xmlns="http://www.w3.org/2000/svg" width="47" height="47" viewBox="0 0 47 47">
  <metadata><?xpacket begin="﻿" id="W5M0MpCehiHzreSzNTczkc9d"?>
<x:xmpmeta xmlns:x="adobe:ns:meta/" x:xmptk="Adobe XMP Core 5.6-c138 79.159824, 2016/09/14-01:09:01        ">
   <rdf:RDF xmlns:rdf="http://www.w3.org/1999/02/22-rdf-syntax-ns#">
      <rdf:Description rdf:about=""/>
   </rdf:RDF>
</x:xmpmeta>
                                                                                                    
                                                                                                    
                                                                                                    
                                                                                                    
                                                                                                    
                                                                                                    
                                                                                                    
                                                                                                    
                                                                                                    
                                                                                                    
                                                                                                    
                                                                                                    
                                                                                                    
                                                                                                    
                                                                                                    
                                                                                                    
                                                                                                    
                                                                                                    
                                                                                                    
                                                                                                    
                           
<?xpacket end="w"?></metadata>
<defs>
    <style>
      .cls-1 {
        fill: #fff;
        fill-rule: evenodd;
      }
    </style>
  </defs>
  <path id="Forma_1" data-name="Forma 1" class="cls-1" d="M947.208,3817.52v21.54a0.98,0.98,0,0,1-.979.98H924.687a0.981,0.981,0,0,1-.979-0.98v-10.77H921.75v10.77a2.941,2.941,0,0,0,2.937,2.94h21.542a2.942,2.942,0,0,0,2.938-2.94v-21.54h-1.959Zm-18.6,3.92h-8.812a6.859,6.859,0,0,0-6.855,6.85H914.9a4.9,4.9,0,0,1,4.9-4.89H928.6a1.955,1.955,0,1,1,0,3.91h-8.812v1.96H928.6A3.915,3.915,0,1,0,928.6,3821.44Zm-17.625,2.94a0.972,0.972,0,0,0-.979.97v0.98h4.9v-1.95h-3.917Zm8.813,13.7a4.9,4.9,0,0,1-4.9-4.89h-1.959a6.859,6.859,0,0,0,6.855,6.85h2.937v-1.96h-2.937ZM910,3835.15v0.97a0.974,0.974,0,0,0,.979.98H914.9v-1.95H910Zm37.208-38.19h-6.854a3.915,3.915,0,1,0,0,7.83h8.813v-1.96h-8.813a1.955,1.955,0,1,1,0-3.91h6.854a4.9,4.9,0,0,1,4.9,4.89h1.958A6.858,6.858,0,0,0,947.208,3796.96Zm8.813,2.94H952.1v1.95H957v-0.97A0.981,0.981,0,0,0,956.021,3799.9Zm-3.917,8.81a4.9,4.9,0,0,1-4.9,4.89h-6.854v1.96h6.854a6.857,6.857,0,0,0,6.854-6.85H952.1Zm0,1.96v1.96h3.917a0.98,0.98,0,0,0,.979-0.98v-0.98h-4.9Zm-7.3-7.13-1.884.54a9.768,9.768,0,1,1-4.084-5.54l1.07-1.64a11.75,11.75,0,1,0-6.408,21.6A11.748,11.748,0,0,0,944.806,3803.54Zm-13.264.27h3.916v-1.96h-3.916a2.94,2.94,0,0,0,0,5.88h3.916v-1.96h-3.916A0.98,0.98,0,1,1,931.542,3803.81Zm3.916,1.96h-3.916v1.96h3.916a0.98,0.98,0,0,1,0,1.96h-3.916a0.981,0.981,0,0,1-.98-0.98H928.6a2.941,2.941,0,0,0,2.938,2.94h3.916A2.94,2.94,0,0,0,935.458,3805.77Zm-2.937,4.9h1.958v2.93h-1.958v-2.93Zm0-10.77h1.958v2.93h-1.958v-2.93Zm-7.834,15.66a2.941,2.941,0,0,0-2.937,2.94v3.92h1.958v-3.92a0.981,0.981,0,0,1,.979-0.98H928.6v-1.96h-3.917Zm1.959,0.98H928.6v5.88h-1.958v-5.88Zm6.854,0.98v6.86h-1.958v1.95h2.937a0.974,0.974,0,0,0,.979-0.98v-7.83H933.5Zm5.875,18.6h5.875v1.96h-5.875v-1.96Zm0-3.91h5.875v1.96h-5.875v-1.96Z" transform="translate(-910 -3795)"/>
</svg>
