<svg xmlns="http://www.w3.org/2000/svg" width="44" height="35" viewBox="0 0 44 35">
  <metadata><?xpacket begin="﻿" id="W5M0MpCehiHzreSzNTczkc9d"?>
<x:xmpmeta xmlns:x="adobe:ns:meta/" x:xmptk="Adobe XMP Core 5.6-c138 79.159824, 2016/09/14-01:09:01        ">
   <rdf:RDF xmlns:rdf="http://www.w3.org/1999/02/22-rdf-syntax-ns#">
      <rdf:Description rdf:about=""/>
   </rdf:RDF>
</x:xmpmeta>
                                                                                                    
                                                                                                    
                                                                                                    
                                                                                                    
                                                                                                    
                                                                                                    
                                                                                                    
                                                                                                    
                                                                                                    
                                                                                                    
                                                                                                    
                                                                                                    
                                                                                                    
                                                                                                    
                                                                                                    
                                                                                                    
                                                                                                    
                                                                                                    
                                                                                                    
                                                                                                    
                           
<?xpacket end="w"?></metadata>
<defs>
    <style>
      .cls-1 {
        fill: #fff;
        fill-rule: evenodd;
      }
    </style>
  </defs>
  <path id="Forma_1" data-name="Forma 1" class="cls-1" d="M197.355,3970.73h-2.706v-23.04l1.794,0.66h0.015c0.01,0,.02.01,0.031,0.01a0.037,0.037,0,0,1,.03.01h0.028a0.063,0.063,0,0,0,.041.01h0.017c0.021,0,.042.01,0.063,0.01,0,0,0-.01.006-0.01h0.1a0.878,0.878,0,0,0,.165-0.05,0.013,0.013,0,0,1,.014-0.01c0.026-.01.052-0.03,0.076-0.04,0-.01,0-0.01,0-0.01a0.22,0.22,0,0,0,.062-0.05c0.006,0,.011-0.01.016-0.01,0.02-.02.039-0.04,0.056-0.06s0.008-.01.011-0.01c0.016-.02.03-0.05,0.043-0.07,0,0,0,0,.008-0.01a0.373,0.373,0,0,0,.038-0.08s0,0,0-.01,0,0,0-.01a0.2,0.2,0,0,0,.012-0.04,0.041,0.041,0,0,0,.007-0.02c0-.01.005-0.02,0.007-0.03s0-.03,0-0.04a0.08,0.08,0,0,1,0-.02c0-.02,0-0.03,0-0.04v-2.56c0-.01,0-0.02,0-0.04l0-.02c0-.01,0-0.03-0.006-0.04s0-.02,0-0.03a0.05,0.05,0,0,1-.008-0.02c0-.01-0.006-0.03-0.009-0.04a0.036,0.036,0,0,1-.009-0.02c0-.01-0.009-0.02-0.014-0.03s-0.007-.02-0.011-0.03a0.228,0.228,0,0,0-.017-0.03,0.243,0.243,0,0,0-.014-0.02c-0.006-.01-0.011-0.02-0.018-0.03s-0.013-.01-0.019-0.02l-0.018-.03a0.043,0.043,0,0,1-.024-0.02c-0.006-.01-0.011-0.01-0.017-0.02a0.049,0.049,0,0,0-.028-0.02c-0.006-.01-0.013-0.01-0.019-0.02s-0.019-.01-0.028-0.02-0.016-.01-0.024-0.02-0.017-.01-0.026-0.01-0.02-.01-0.031-0.02-0.015-.01-0.023-0.01-0.024-.01-0.037-0.02h-0.009l-20.712-7.59c-0.007,0-.015-0.01-0.023-0.01h-0.018a0.257,0.257,0,0,0-.084-0.02h0a0.242,0.242,0,0,0-.084-0.01h-0.09a0.021,0.021,0,0,1-.021.01H175.82a0.023,0.023,0,0,1-.022.01c-0.011,0-.022.01-0.033,0.01a0.031,0.031,0,0,0-.027.01h-0.007l-9.656,3.55a0.648,0.648,0,0,0-.361.33,0.632,0.632,0,0,0-.016.49,0.655,0.655,0,0,0,.6.41,0.583,0.583,0,0,0,.226-0.04l9.431-3.47,20.066,7.35v1.18l-19.842-7.27h-0.007a0.051,0.051,0,0,0-.037-0.01,0.026,0.026,0,0,0-.024-0.01c-0.012,0-.025-0.01-0.037-0.01h-0.026a0.05,0.05,0,0,0-.036-0.01h-0.122c-0.01,0-.021.01-0.031,0.01h-0.029c-0.011,0-.022.01-0.033,0.01a0.029,0.029,0,0,0-.026.01,0.05,0.05,0,0,0-.036.01h-0.007l-19.755,7.27v-1.18l8.137-2.99a0.648,0.648,0,0,0,.361-0.33,0.632,0.632,0,0,0,.016-0.49,0.654,0.654,0,0,0-.6-0.41,0.586,0.586,0,0,0-.226.04l-8.555,3.15s-0.008,0-.011.01a0.044,0.044,0,0,0-.034.01c-0.008,0-.016.01-0.024,0.01s-0.02.01-.03,0.02-0.017.01-.026,0.01-0.016.01-.024,0.02-0.019.01-.028,0.02-0.012.01-.018,0.01l-0.03.03c0,0.01-.01.01-0.015,0.02s-0.018.01-.027,0.02a0.034,0.034,0,0,1-.014.02l-0.023.03-0.015.03c-0.006.01-.012,0.01-0.017,0.02s-0.011.02-.016,0.03-0.006.01-.009,0.02,0,0.01,0,.01-0.009.02-.013,0.03-0.007.02-.01,0.03,0,0.01-.008.02a0.227,0.227,0,0,1-.01.04c0,0.01,0,.01,0,0.02a0.35,0.35,0,0,0-.007.05h0q0,0.03,0,.06h0v2.53c0,0.01,0,.01,0,0.02s0,0.02,0,.04c0,0,0,.01,0,0.02s0,0.02,0,.04,0,0.02.007,0.03a0.033,0.033,0,0,0,.007.02,0.119,0.119,0,0,0,.012.04c0,0.01,0,.01,0,0.01s0,0.01,0,.01a0.373,0.373,0,0,0,.038.08c0,0.01,0,.01.008,0.01a0.289,0.289,0,0,0,.043.07,0.109,0.109,0,0,0,.011.01c0.017,0.02.035,0.04,0.055,0.06,0.006,0,.011.01,0.017,0.01a0.249,0.249,0,0,0,.061.05s0,0,0,.01c0.024,0.01.049,0.03,0.075,0.04a0.014,0.014,0,0,1,.015.01,0.878,0.878,0,0,0,.165.05h0.1a0.061,0.061,0,0,0,.007.01c0.021,0,.041-0.01.062-0.01h0.017a0.066,0.066,0,0,0,.042-0.01h0.028a0.037,0.037,0,0,1,.03-0.01c0.011,0,.021-0.01.032-0.01h0.015l1.707-.63v23.01h-2.621a0.644,0.644,0,0,0-.644.64,0.636,0.636,0,0,0,.644.63h17.017a0.636,0.636,0,0,0,.644-0.63v-5.06a0.644,0.644,0,0,0-.644-0.64h-1.934v-4.42a0.644,0.644,0,0,0-.644-0.64h-1.934v-4.42a0.645,0.645,0,0,0-.645-0.64h-4.513v-2.06h27.931v2.06H185.41a0.644,0.644,0,0,0-.644.64v4.42h-1.935a0.644,0.644,0,0,0-.644.64v4.42h-1.934a0.644,0.644,0,0,0-.644.64v5.06a0.636,0.636,0,0,0,.644.63h17.1a0.636,0.636,0,0,0,.645-0.63A0.645,0.645,0,0,0,197.355,3970.73Zm-12.589,0H180.9v-3.79h3.868v3.79Zm0.644-5.06h-1.934v-3.79h3.868v3.79H185.41Zm4.512,5.06h-3.867v-3.79h3.867v3.79Zm0-5.06h-1.289v-3.79h1.289v3.79Zm0-5.06h-3.867v-3.79h3.867v3.79Zm-24.063,10.12h-3.868v-3.79h3.868v3.79h0Zm-3.868-5.06v-3.79h1.29v3.79h-1.29Zm7.1,1.27h1.923v3.79h-3.867v-3.79h1.944Zm-2.572-5.06h1.917v3.79H164.57v-3.79h1.951Zm-0.661-5.06v3.79h-3.869v-3.79h3.869Zm24.062-4.6H161.991v-1.3h27.931v1.3Zm3.438,18.51h-2.148v-4.42a0.016,0.016,0,0,0,0-.01v-5.05h0v-5.06a0.016,0.016,0,0,0,0-.01v-5.9a0.636,0.636,0,0,0-.644-0.63h-29.22a0.636,0.636,0,0,0-.645.63v20.45h-2.147v-23.49l17.4-6.4,17.4,6.38v23.51Z" transform="translate(-154 -3937)"/>
</svg>
