<svg xmlns="http://www.w3.org/2000/svg" width="42.031" height="42" viewBox="0 0 42.031 42">
  <metadata><?xpacket begin="﻿" id="W5M0MpCehiHzreSzNTczkc9d"?>
<x:xmpmeta xmlns:x="adobe:ns:meta/" x:xmptk="Adobe XMP Core 5.6-c138 79.159824, 2016/09/14-01:09:01        ">
   <rdf:RDF xmlns:rdf="http://www.w3.org/1999/02/22-rdf-syntax-ns#">
      <rdf:Description rdf:about=""/>
   </rdf:RDF>
</x:xmpmeta>
                                                                                                    
                                                                                                    
                                                                                                    
                                                                                                    
                                                                                                    
                                                                                                    
                                                                                                    
                                                                                                    
                                                                                                    
                                                                                                    
                                                                                                    
                                                                                                    
                                                                                                    
                                                                                                    
                                                                                                    
                                                                                                    
                                                                                                    
                                                                                                    
                                                                                                    
                                                                                                    
                           
<?xpacket end="w"?></metadata>
<defs>
    <style>
      .cls-1 {
        fill: #fff;
        fill-rule: evenodd;
      }
    </style>
  </defs>
  <path class="cls-1" d="M931.543,3948.95l-3.135,8.95-3.136-8.95h-2.256l4.267,11.89,0.075,0.21h2.1l4.194-11.68,0.15-.42h-2.257Zm3.132,0h2.216v12.1h-2.216v-12.1Zm11.848,2.05a3.337,3.337,0,0,0-1.024-1.16,4.6,4.6,0,0,0-1.5-.67,7.424,7.424,0,0,0-1.81-.22H939.1v12.1h2.216v-4.53h0.476a7.415,7.415,0,0,0,1.983-.26,5.276,5.276,0,0,0,1.621-.76,3.714,3.714,0,0,0,1.1-1.24,3.374,3.374,0,0,0,.4-1.64A3.421,3.421,0,0,0,946.523,3951Zm-2.035,2.44a1.813,1.813,0,0,1-.56.62,2.684,2.684,0,0,1-.9.41,4.408,4.408,0,0,1-1.185.15h-0.527v-3.77h0.821a5.01,5.01,0,0,1,1.044.11,2.429,2.429,0,0,1,.809.32,1.569,1.569,0,0,1,.509.53,1.594,1.594,0,0,1,.183.8A1.736,1.736,0,0,1,944.488,3953.44Zm10.9,0.07-4.924-4.92v-6.95a2.1,2.1,0,0,0-2.1-2.1H941.4l-4.923-4.92a2.084,2.084,0,0,0-1.487-.62,2.11,2.11,0,0,0-1.485.61l-4.924,4.92h-6.964a2.109,2.109,0,0,0-2.1,2.11v6.95l-4.924,4.92a2.1,2.1,0,0,0,0,2.97l4.924,4.92v6.96a2.1,2.1,0,0,0,2.1,2.1h6.964l4.924,4.92a2.09,2.09,0,0,0,2.971,0l4.923-4.92h6.964a2.1,2.1,0,0,0,2.1-2.1v-6.95l4.923-4.93A2.1,2.1,0,0,0,955.385,3953.51Zm-7.026,7.02v7.83h-7.834l-5.539,5.54-5.539-5.54h-7.834v-7.83l-5.539-5.53,5.539-5.54v-7.82h7.834l5.539-5.54,5.54,5.54h7.833v7.82l5.54,5.54Zm-13.373-21.28a1.05,1.05,0,1,1-1.05,1.05A1.05,1.05,0,0,1,934.986,3939.25Zm0,29.4a1.05,1.05,0,1,1-1.05,1.05A1.05,1.05,0,0,1,934.986,3968.65Zm-10.4-25.1a1.05,1.05,0,1,1-1.051,1.05A1.05,1.05,0,0,1,924.585,3943.55Zm20.8,20.79a1.05,1.05,0,1,1-1.05,1.05A1.05,1.05,0,0,1,945.387,3964.34Zm0-20.79a1.05,1.05,0,1,1-1.05,1.05A1.05,1.05,0,0,1,945.387,3943.55Zm-20.8,20.79a1.05,1.05,0,1,1-1.051,1.05A1.05,1.05,0,0,1,924.585,3964.34Zm25.111-10.39a1.05,1.05,0,1,1-1.051,1.05A1.051,1.051,0,0,1,949.7,3953.95Zm-29.419,0a1.05,1.05,0,1,1-1.051,1.05A1.05,1.05,0,0,1,920.277,3953.95Z" transform="translate(-914 -3934)"/>
</svg>
