<svg xmlns="http://www.w3.org/2000/svg" width="52" height="38" viewBox="0 0 52 38">
  <metadata><?xpacket begin="﻿" id="W5M0MpCehiHzreSzNTczkc9d"?>
<x:xmpmeta xmlns:x="adobe:ns:meta/" x:xmptk="Adobe XMP Core 5.6-c138 79.159824, 2016/09/14-01:09:01        ">
   <rdf:RDF xmlns:rdf="http://www.w3.org/1999/02/22-rdf-syntax-ns#">
      <rdf:Description rdf:about=""/>
   </rdf:RDF>
</x:xmpmeta>
                                                                                                    
                                                                                                    
                                                                                                    
                                                                                                    
                                                                                                    
                                                                                                    
                                                                                                    
                                                                                                    
                                                                                                    
                                                                                                    
                                                                                                    
                                                                                                    
                                                                                                    
                                                                                                    
                                                                                                    
                                                                                                    
                                                                                                    
                                                                                                    
                                                                                                    
                                                                                                    
                           
<?xpacket end="w"?></metadata>
<defs>
    <style>
      .cls-1 {
        fill: #fff;
        fill-rule: evenodd;
      }
    </style>
  </defs>
  <path id="Forma_1" data-name="Forma 1" class="cls-1" d="M569.1,3811.15h-3.274l0.986-11.32c0-.02,0-0.04,0-0.06a0.016,0.016,0,0,1,0-.01h0a0.764,0.764,0,0,0-.46-0.7h-0.007c-0.017-.01-0.034-0.01-0.052-0.02a0.019,0.019,0,0,1-.019-0.01,0.071,0.071,0,0,1-.044-0.01,0.038,0.038,0,0,1-.031-0.01h-0.039c-0.013,0-.025-0.01-0.038-0.01H550.462a0.76,0.76,0,1,0,0,1.52H565.22l-1.516,17.4v0.01l-0.382,4.39H536.853l0.443-4.57h5.04a0.76,0.76,0,1,0,0-1.52h-4.892l0.935-9.65h8.02a0.76,0.76,0,1,0,0-1.52h-7.873l0.44-4.54h8.449a0.76,0.76,0,1,0,0-1.52h-9.142a0.761,0.761,0,0,0-.743.6,0.036,0.036,0,0,1,0,.01c0,0.02-.006.04-0.009,0.06l0,0.01v0.01l-0.52,5.37h-9.234a0.76,0.76,0,1,0,0,1.52h9.086l-0.935,9.65H533.2a0.76,0.76,0,1,0,0,1.52h2.57l-0.509,5.25h0l-0.787,8.12v0.01h0c0,0.01,0,.02,0,0.03s0,0.03,0,.04h0c0,0.02,0,.04,0,0.06a0.134,0.134,0,0,1,0,.02c0,0.02.006,0.04,0.009,0.06a0.08,0.08,0,0,1,0,.02,0.329,0.329,0,0,1,.011.04c0,0.01,0,.02.008,0.03s0,0,0,.01a0.849,0.849,0,0,0,.182.3h0a0.044,0.044,0,0,0,.025.02,0.659,0.659,0,0,0,.177.12,0.078,0.078,0,0,0,.041.02,0.012,0.012,0,0,0,.013.01c0.019,0.01.038,0.01,0.058,0.02h0c0.023,0.01.045,0.01,0.069,0.02h0.009c0.022,0,.044.01,0.067,0.01h3.468a5.8,5.8,0,0,0,11.5,0h12.218a5.8,5.8,0,0,0,11.5,0h3.482c0.02,0,.039-0.01.059-0.01s0.016-.01.024-0.01a0.074,0.074,0,0,0,.045-0.01,0.035,0.035,0,0,0,.029-0.01c0.013,0,.025-0.01.037-0.01s0.021-.01.031-0.02,0.023-.01.033-0.01,0.021-.01.031-0.02a0.055,0.055,0,0,0,.031-0.02,0.049,0.049,0,0,0,.028-0.02,0.053,0.053,0,0,0,.03-0.02,0.041,0.041,0,0,0,.025-0.02l0.03-.03a0.036,0.036,0,0,0,.021-0.02l0.031-.03c0-.01.011-0.01,0.016-0.02s0.021-.03.032-0.04,0.007-.01.01-0.01c0.013-.02.024-0.04,0.035-0.06,0,0,0,0,0-.01s0.022-.04.032-0.06a0.159,0.159,0,0,1,.007-0.02c0.006-.02.012-0.03,0.017-0.05s0.006-.02.009-0.03,0.007-.03.01-0.04l0.006-.03c0-.01,0-0.02,0-0.03,0.033-.26.629-5.05,0.9-8.14a0.034,0.034,0,0,0,0-.01c0.077-.89.126-1.64,0.126-2.1A9.911,9.911,0,0,0,569.1,3811.15Zm-3.407,1.52h3.116l-0.4,4.57h-3.116Zm-21.323,22.81a4.275,4.275,0,1,1,4.276-4.28A4.283,4.283,0,0,1,544.368,3835.48Zm23.714,0a4.275,4.275,0,1,1,4.276-4.28A4.283,4.283,0,0,1,568.082,3835.48Zm8.467-5.04H573.83a5.8,5.8,0,0,0-11.5,0H550.116a5.8,5.8,0,0,0-11.5,0h-2.554l0.64-6.6H564.1s0.009-.01.013-0.01a0.127,0.127,0,0,0,.06-0.01H564.2c0.015,0,.03-0.01.045-0.01a0.037,0.037,0,0,1,.03-0.01c0.012-.01.025-0.01,0.038-0.02s0.02-.01.031-0.01,0.022-.01.033-0.02,0.021-.01.031-0.01a0.055,0.055,0,0,1,.031-0.02,0.051,0.051,0,0,1,.029-0.02,0.051,0.051,0,0,1,.029-0.02l0.026-.03a0.046,0.046,0,0,0,.028-0.02,0.045,0.045,0,0,1,.023-0.02l0.027-.03,0.02-.03,0.024-.03,0.018-.03,0.021-.03c0-.01.011-0.02,0.015-0.03s0.012-.02.018-0.03l0.013-.03a0.177,0.177,0,0,1,.014-0.04c0-.01.007-0.02,0.011-0.03a0.248,0.248,0,0,1,.009-0.04,0.183,0.183,0,0,0,.008-0.04c0-.01,0-0.02.006-0.03s0-.03,0-0.04a0.016,0.016,0,0,0,0-.01l0.382-4.38H569.1c2.334,0,3.387,1.21,4.5,2.49a6.2,6.2,0,0,0,3.691,2.52C577.067,3826.12,576.709,3829.12,576.549,3830.44Zm0.87-8.19a4.987,4.987,0,0,1-2.672-2,7.134,7.134,0,0,0-4.813-2.96l0.395-4.53a8.4,8.4,0,0,1,7.147,8.29C577.476,3821.33,577.455,3821.75,577.419,3822.25Zm-33.051,6.16a2.79,2.79,0,1,0,2.793,2.79A2.794,2.794,0,0,0,544.368,3828.41Zm0,4.06a1.27,1.27,0,1,1,1.27-1.27A1.272,1.272,0,0,1,544.368,3832.47Zm23.714-4.06a2.79,2.79,0,1,0,2.793,2.79A2.794,2.794,0,0,0,568.082,3828.41Zm0,4.06a1.27,1.27,0,1,1,1.269-1.27A1.272,1.272,0,0,1,568.082,3832.47Zm-33.871-21.32h-3.724a0.76,0.76,0,1,0,0,1.52h3.724A0.76,0.76,0,1,0,534.211,3811.15Z" transform="translate(-527 -3799)"/>
</svg>
