<svg xmlns="http://www.w3.org/2000/svg" width="14.938" height="14.969" viewBox="0 0 14.938 14.969">
  <metadata><?xpacket begin="﻿" id="W5M0MpCehiHzreSzNTczkc9d"?>
<x:xmpmeta xmlns:x="adobe:ns:meta/" x:xmptk="Adobe XMP Core 5.6-c138 79.159824, 2016/09/14-01:09:01        ">
   <rdf:RDF xmlns:rdf="http://www.w3.org/1999/02/22-rdf-syntax-ns#">
      <rdf:Description rdf:about=""/>
   </rdf:RDF>
</x:xmpmeta>
                                                                                                    
                                                                                                    
                                                                                                    
                                                                                                    
                                                                                                    
                                                                                                    
                                                                                                    
                                                                                                    
                                                                                                    
                                                                                                    
                                                                                                    
                                                                                                    
                                                                                                    
                                                                                                    
                                                                                                    
                                                                                                    
                                                                                                    
                                                                                                    
                                                                                                    
                                                                                                    
                           
<?xpacket end="w"?></metadata>
<defs>
    <style>
      .cls-1 {
        fill: #585858;
        fill-rule: evenodd;
      }
    </style>
  </defs>
  <path id="Фигура_1_копия" data-name="Фигура 1 копия" class="cls-1" d="M843.8,64.2l-7.078-7.076a0.425,0.425,0,0,0-.6.6L842.9,64.5l-6.777,6.774a0.422,0.422,0,0,0,0,.6,0.428,0.428,0,0,0,.3.126,0.411,0.411,0,0,0,.3-0.126L843.8,64.8A0.421,0.421,0,0,0,843.8,64.2Zm-0.663,0,7.1-7.076a0.426,0.426,0,0,1,.6.6l-6.8,6.774,6.8,6.774a0.422,0.422,0,0,1,0,.6,0.43,0.43,0,0,1-.3.126,0.417,0.417,0,0,1-.3-0.126l-7.1-7.076A0.421,0.421,0,0,1,843.141,64.2Z" transform="translate(-836.031 -57.031)"/>
</svg>
