<svg xmlns="http://www.w3.org/2000/svg" width="32" height="32" viewBox="0 0 32 32">
  <metadata><?xpacket begin="﻿" id="W5M0MpCehiHzreSzNTczkc9d"?>
<x:xmpmeta xmlns:x="adobe:ns:meta/" x:xmptk="Adobe XMP Core 5.6-c138 79.159824, 2016/09/14-01:09:01        ">
   <rdf:RDF xmlns:rdf="http://www.w3.org/1999/02/22-rdf-syntax-ns#">
      <rdf:Description rdf:about=""/>
   </rdf:RDF>
</x:xmpmeta>
                                                                                                    
                                                                                                    
                                                                                                    
                                                                                                    
                                                                                                    
                                                                                                    
                                                                                                    
                                                                                                    
                                                                                                    
                                                                                                    
                                                                                                    
                                                                                                    
                                                                                                    
                                                                                                    
                                                                                                    
                                                                                                    
                                                                                                    
                                                                                                    
                                                                                                    
                                                                                                    
                           
<?xpacket end="w"?></metadata>
<defs>
    <style>
      .cls-1 {
        fill: #9e9e9e;
        fill-rule: evenodd;
      }
    </style>
  </defs>
  <path id="Фигура_6_копия" data-name="Фигура 6 копия" class="cls-1" d="M864.737,420.362l-15.181-15.1a0.912,0.912,0,0,0-1.288,0,0.9,0.9,0,0,0,0,1.281L862.8,421l-14.534,14.452a0.9,0.9,0,0,0,0,1.281,0.919,0.919,0,0,0,.641.268,0.893,0.893,0,0,0,.641-0.268l15.181-15.1A0.9,0.9,0,0,0,864.737,420.362Zm-1.474,0,15.181-15.1a0.912,0.912,0,0,1,1.288,0,0.9,0.9,0,0,1,0,1.281L865.2,421l14.534,14.452a0.9,0.9,0,0,1,0,1.281,0.923,0.923,0,0,1-.641.268,0.893,0.893,0,0,1-.641-0.268l-15.181-15.1A0.9,0.9,0,0,1,863.263,420.362Z" transform="translate(-848 -405)"/>
</svg>
