<svg xmlns="http://www.w3.org/2000/svg" width="22" height="22" viewBox="0 0 22 22">
  <metadata><?xpacket begin="﻿" id="W5M0MpCehiHzreSzNTczkc9d"?>
<x:xmpmeta xmlns:x="adobe:ns:meta/" x:xmptk="Adobe XMP Core 5.6-c138 79.159824, 2016/09/14-01:09:01        ">
   <rdf:RDF xmlns:rdf="http://www.w3.org/1999/02/22-rdf-syntax-ns#">
      <rdf:Description rdf:about=""/>
   </rdf:RDF>
</x:xmpmeta>
                                                                                                    
                                                                                                    
                                                                                                    
                                                                                                    
                                                                                                    
                                                                                                    
                                                                                                    
                                                                                                    
                                                                                                    
                                                                                                    
                                                                                                    
                                                                                                    
                                                                                                    
                                                                                                    
                                                                                                    
                                                                                                    
                                                                                                    
                                                                                                    
                                                                                                    
                                                                                                    
                           
<?xpacket end="w"?></metadata>
<defs>
    <style>
      .cls-1 {
        fill: #fff;
        fill-rule: evenodd;
      }
    </style>
  </defs>
  <path id="Forma_1" data-name="Forma 1" class="cls-1" d="M1213.42,5003h-16.84a2.586,2.586,0,0,0-2.58,2.58v16.84a2.586,2.586,0,0,0,2.58,2.58h16.84a2.586,2.586,0,0,0,2.58-2.58v-16.84A2.586,2.586,0,0,0,1213.42,5003Zm0.86,19.42a0.854,0.854,0,0,1-.86.86h-4.9v-7h2.66l0.44-2.67h-3.1v-1.85a1.266,1.266,0,0,1,1.29-1.28h1.76v-2.67h-1.76a3.948,3.948,0,0,0-3.95,3.96v1.84h-2.58v2.67h2.58v7h-9.28a0.854,0.854,0,0,1-.86-0.86v-16.84a0.854,0.854,0,0,1,.86-0.86h16.84a0.854,0.854,0,0,1,.86.86v16.84Z" transform="translate(-1194 -5003)"/>
</svg>
