<svg xmlns="http://www.w3.org/2000/svg" width="22" height="22" viewBox="0 0 22 22">
  <metadata><?xpacket begin="﻿" id="W5M0MpCehiHzreSzNTczkc9d"?>
<x:xmpmeta xmlns:x="adobe:ns:meta/" x:xmptk="Adobe XMP Core 5.6-c138 79.159824, 2016/09/14-01:09:01        ">
   <rdf:RDF xmlns:rdf="http://www.w3.org/1999/02/22-rdf-syntax-ns#">
      <rdf:Description rdf:about=""/>
   </rdf:RDF>
</x:xmpmeta>
                                                                                                    
                                                                                                    
                                                                                                    
                                                                                                    
                                                                                                    
                                                                                                    
                                                                                                    
                                                                                                    
                                                                                                    
                                                                                                    
                                                                                                    
                                                                                                    
                                                                                                    
                                                                                                    
                                                                                                    
                                                                                                    
                                                                                                    
                                                                                                    
                                                                                                    
                                                                                                    
                           
<?xpacket end="w"?></metadata>
<defs>
    <style>
      .cls-1 {
        fill: #fff;
        fill-rule: evenodd;
      }
    </style>
  </defs>
  <path id="Forma_1" data-name="Forma 1" class="cls-1" d="M1131.61,5003h-9.22a6.4,6.4,0,0,0-6.39,6.39v9.22a6.4,6.4,0,0,0,6.39,6.39h9.22a6.4,6.4,0,0,0,6.39-6.39v-9.22A6.4,6.4,0,0,0,1131.61,5003Zm4.67,15.61a4.669,4.669,0,0,1-4.67,4.67h-9.22a4.669,4.669,0,0,1-4.67-4.67v-9.22a4.669,4.669,0,0,1,4.67-4.67h9.22a4.669,4.669,0,0,1,4.67,4.67v9.22Zm-9.28-10.54a5.93,5.93,0,1,0,5.93,5.93A5.936,5.936,0,0,0,1127,5008.07Zm0,10.14a4.21,4.21,0,1,1,4.21-4.21A4.217,4.217,0,0,1,1127,5018.21Zm6.02-11.09a0.86,0.86,0,1,1-.86.86A0.858,0.858,0,0,1,1133.02,5007.12Z" transform="translate(-1116 -5003)"/>
</svg>
