<svg xmlns="http://www.w3.org/2000/svg" width="63" height="40" viewBox="0 0 63 40">
  <metadata><?xpacket begin="﻿" id="W5M0MpCehiHzreSzNTczkc9d"?>
<x:xmpmeta xmlns:x="adobe:ns:meta/" x:xmptk="Adobe XMP Core 5.6-c138 79.159824, 2016/09/14-01:09:01        ">
   <rdf:RDF xmlns:rdf="http://www.w3.org/1999/02/22-rdf-syntax-ns#">
      <rdf:Description rdf:about=""/>
   </rdf:RDF>
</x:xmpmeta>
                                                                                                    
                                                                                                    
                                                                                                    
                                                                                                    
                                                                                                    
                                                                                                    
                                                                                                    
                                                                                                    
                                                                                                    
                                                                                                    
                                                                                                    
                                                                                                    
                                                                                                    
                                                                                                    
                                                                                                    
                                                                                                    
                                                                                                    
                                                                                                    
                                                                                                    
                                                                                                    
                           
<?xpacket end="w"?></metadata>
<defs>
    <style>
      .cls-1 {
        fill: #fff;
        fill-rule: evenodd;
      }
    </style>
  </defs>
  <path id="Forma_1" data-name="Forma 1" class="cls-1" d="M856,4994v40h63v-40H856Zm59.1,36.08H859.9v-32.16H915.1v32.16Zm-34.423-4.98a10.929,10.929,0,0,0,6.816-2.38,11.1,11.1,0,1,0,0-17.44,10.929,10.929,0,0,0-6.816-2.38A11.1,11.1,0,0,0,880.68,5025.1Zm20.784-11.1a7.17,7.17,0,0,1-7.144,7.18,7.093,7.093,0,0,1-4.224-1.39,11.122,11.122,0,0,0,0-11.58,7.093,7.093,0,0,1,4.224-1.39A7.17,7.17,0,0,1,901.464,5014Z" transform="translate(-856 -4994)"/>
</svg>
