<svg xmlns="http://www.w3.org/2000/svg" width="56.061" height="38.88" viewBox="0 0 56.061 38.88">
  <metadata><?xpacket begin="﻿" id="W5M0MpCehiHzreSzNTczkc9d"?>
<x:xmpmeta xmlns:x="adobe:ns:meta/" x:xmptk="Adobe XMP Core 5.6-c138 79.159824, 2016/09/14-01:09:01        ">
   <rdf:RDF xmlns:rdf="http://www.w3.org/1999/02/22-rdf-syntax-ns#">
      <rdf:Description rdf:about=""/>
   </rdf:RDF>
</x:xmpmeta>
                                                                                                    
                                                                                                    
                                                                                                    
                                                                                                    
                                                                                                    
                                                                                                    
                                                                                                    
                                                                                                    
                                                                                                    
                                                                                                    
                                                                                                    
                                                                                                    
                                                                                                    
                                                                                                    
                                                                                                    
                                                                                                    
                                                                                                    
                                                                                                    
                                                                                                    
                                                                                                    
                           
<?xpacket end="w"?></metadata>
<defs>
    <style>
      .cls-1 {
        fill: #fff;
        fill-rule: evenodd;
      }
    </style>
  </defs>
  <path id="Forma_1" data-name="Forma 1" class="cls-1" d="M1005.82,4994.05H956.177a3.2,3.2,0,0,0-3.211,3.18v32.54a3.2,3.2,0,0,0,3.211,3.18h49.643a3.2,3.2,0,0,0,3.21-3.18v-32.54A3.2,3.2,0,0,0,1005.82,4994.05Zm-0.08,35.63-49.48.08-0.083-32.45,49.563-.08v32.45ZM960.934,5009l1.664,11.82h4.084l7.618-14.63h-4.292l-3.234,6.78c-0.458.97-.855,1.84-1.2,2.64-0.063-.84-0.132-1.65-0.215-2.47l-0.653-6.95h-6.533l6.793,5.33Zm16.3,11.82,2.8-14.63h-3.845l-2.8,14.63h3.848Zm2.251-.86a7.5,7.5,0,0,0,4.237,1.06c3.635,0,6.081-2.03,6.081-5.06,0-1.66-.976-2.97-2.98-4.01-1.122-.62-1.8-1.04-1.8-1.57,0-.49.524-1.02,1.764-1.02a5.2,5.2,0,0,1,2.3.56l0.432,0.23,1.23-3.25-0.321-.18a7.208,7.208,0,0,0-3.49-.75c-3.48,0-5.912,2.02-5.912,4.9,0,2.1,1.659,3.26,3.121,4.04,1.369,0.71,1.636,1.11,1.636,1.56,0,0.88-.953,1.19-1.77,1.19a6.059,6.059,0,0,1-3.061-.82l-0.433-.25-1.3,3.18Zm14.028,0.86,1.648-3.58h3.328l0.29,3.58h3.99l-1.73-14.63h-4.466l-7.179,14.63h4.119Zm4.009-9.04c0.153-.33.308-0.7,0.47-1.09,0.027,0.35.051,0.67,0.071,0.95l0.226,2.5h-1.871Z" transform="translate(-952.969 -4994.06)"/>
</svg>
