<svg xmlns="http://www.w3.org/2000/svg" width="28" height="16" viewBox="0 0 28 16">
  <metadata><?xpacket begin="﻿" id="W5M0MpCehiHzreSzNTczkc9d"?>
<x:xmpmeta xmlns:x="adobe:ns:meta/" x:xmptk="Adobe XMP Core 5.6-c138 79.159824, 2016/09/14-01:09:01        ">
   <rdf:RDF xmlns:rdf="http://www.w3.org/1999/02/22-rdf-syntax-ns#">
      <rdf:Description rdf:about=""/>
   </rdf:RDF>
</x:xmpmeta>
                                                                                                    
                                                                                                    
                                                                                                    
                                                                                                    
                                                                                                    
                                                                                                    
                                                                                                    
                                                                                                    
                                                                                                    
                                                                                                    
                                                                                                    
                                                                                                    
                                                                                                    
                                                                                                    
                                                                                                    
                                                                                                    
                                                                                                    
                                                                                                    
                                                                                                    
                                                                                                    
                           
<?xpacket end="w"?></metadata>
<defs>
    <style>
      .cls-1 {
        fill: #fff;
        fill-rule: evenodd;
      }
    </style>
  </defs>
  <path id="Искусственная_трава" data-name="Искусственная трава" class="cls-1" d="M873.426,210.3a22.016,22.016,0,0,1-.127,9.679c0-.024.033-0.384,0.033-0.384a8.723,8.723,0,0,0-.546-4.83,4.783,4.783,0,0,1-1.2,4.83c-0.253.238-.442,0.44-0.442,0.44a3.345,3.345,0,0,1-.051-0.44c-0.455-3.771,1.7-8.574,1.7-8.574-1.377,1.231-2.21,5.237-2.577,7.441,0.437-3.714-.286-5.425-0.286-5.425a16.678,16.678,0,0,1-.733,6.558c-0.075.227-.126,0.44-0.126,0.44a2,2,0,0,1-.1-0.44c-0.517-2.246-.262-7.782-0.262-7.782a26.294,26.294,0,0,0-.987,5.871,12.2,12.2,0,0,0-1.017-5.224,10.289,10.289,0,0,1-.358,6.913c0.286-3.744-.716-4.68-0.716-4.68,0.74,1.55-.93,4.609-0.93,4.609-0.644-4.033.93-9.722,0.93-9.722-0.953,1.352-1.513,4.735-1.806,7.194-0.031-3.124-1.328-4.314-1.328-4.314,1.3,3.169-.015,7.057-0.015,7.057a12.037,12.037,0,0,0-.788-5.545c0.118,1.653-1.207,4.609-1.688,5.623a3.634,3.634,0,0,0-.173.44,2.453,2.453,0,0,1-.072-0.44c-0.481-2.782.5-8.719,0.5-8.719-1.127.882-1.816,7.152-1.971,8.719-0.023.226-.034,0.44-0.034,0.44s-0.014-.321-0.021-0.44c-0.148-2.434-.132-5.135-0.132-5.135-0.473.523-.847,5.575-0.849,5.575l0.012-.44c0.309-6.291-.8-8.358-0.8-8.358,0.542,3.09-.437,7.15-0.76,8.358-0.061.227-.1,0.44-0.1,0.44a1.1,1.1,0,0,1-.185-0.44c-0.752-1.855.185-6.127,0.185-6.127a9.1,9.1,0,0,0-1.256,4.567c0.079-7.567-.534-10.039-0.534-10.039,0.441,2.728-.506,9.925-0.738,11.6-0.013.1-.012,0.088,0,0H853.06a38.921,38.921,0,0,0-.675-7.135c0,2-.457,5.937-0.6,7.135-0.027.225-.044,0.44-0.044,0.44-0.073-.147-0.108-0.319-0.157-0.44-1.09-3.26.157-8.719,0.157-8.719-1.662,2.23-1.841,7.335-1.859,8.719,0,0.106,0,.135,0,0,0,0,.085.529-0.148,0-0.8-1.736.192-7.135,0.192-7.135-0.981,1.049-1.38,5.8-1.468,7.135-0.015.223-.033,0.44-0.033,0.44a2.8,2.8,0,0,1-.071-0.44c-0.779-4.595,1.53-9.684,1.53-9.684-2.29,1.44-2.883,10.124-2.883,10.124V224h28v-4.4h0C875.005,211.538,873.426,210.3,873.426,210.3Z" transform="translate(-847 -208)"/>
</svg>
