<svg xmlns="http://www.w3.org/2000/svg" width="24" height="22" viewBox="0 0 24 22">
  <metadata><?xpacket begin="﻿" id="W5M0MpCehiHzreSzNTczkc9d"?>
<x:xmpmeta xmlns:x="adobe:ns:meta/" x:xmptk="Adobe XMP Core 5.6-c138 79.159824, 2016/09/14-01:09:01        ">
   <rdf:RDF xmlns:rdf="http://www.w3.org/1999/02/22-rdf-syntax-ns#">
      <rdf:Description rdf:about=""/>
   </rdf:RDF>
</x:xmpmeta>
                                                                                                    
                                                                                                    
                                                                                                    
                                                                                                    
                                                                                                    
                                                                                                    
                                                                                                    
                                                                                                    
                                                                                                    
                                                                                                    
                                                                                                    
                                                                                                    
                                                                                                    
                                                                                                    
                                                                                                    
                                                                                                    
                                                                                                    
                                                                                                    
                                                                                                    
                                                                                                    
                           
<?xpacket end="w"?></metadata>
<defs>
    <style>
      .cls-1 {
        fill: #fff;
        fill-rule: evenodd;
      }
    </style>
  </defs>
  <path id="Ковролин" class="cls-1" d="M146.853,207.919a0.521,0.521,0,0,0,0-.724,0.493,0.493,0,0,0-.707,0,0.521,0.521,0,0,0,0,.724A0.492,0.492,0,0,0,146.853,207.919ZM165,217.79a0.506,0.506,0,0,0-.5-0.511v-1.023a0.512,0.512,0,0,0,0-1.024v-1.023a0.512,0.512,0,0,0,0-1.023v-1.024a0.512,0.512,0,0,0,0-1.023v-1.023a0.512,0.512,0,0,0,0-1.024v-1.023a0.512,0.512,0,0,0,0-1.023v-1.023a0.512,0.512,0,0,0,0-1.023H146v0.009a9.688,9.688,0,0,0-3.221.627c-1.147.469-1.778,1.152-1.778,1.922v16.883c0,0.77.631,1.453,1.778,1.923a11.206,11.206,0,0,0,7.443,0c1.147-.47,1.778-1.153,1.778-1.923h12.5a0.512,0.512,0,0,0,0-1.023V222.4a0.512,0.512,0,0,0,0-1.023v-1.023a0.512,0.512,0,0,0,0-1.024V218.3A0.506,0.506,0,0,0,165,217.79Zm-21.85-11.2a10.265,10.265,0,0,1,6.7,0,1.653,1.653,0,0,1,1.149.96c-0.018.117-.331,1.547-4.5,1.547s-4.481-1.43-4.5-1.547A1.655,1.655,0,0,1,143.15,206.585ZM151,224.441a1.617,1.617,0,0,1-1.15.973,10.248,10.248,0,0,1-6.7,0,1.617,1.617,0,0,1-1.15-.973V209.122a10.683,10.683,0,0,0,9,0v15.319Zm12.5-1.023H152v-3.069a0.5,0.5,0,0,0,.355-0.15,0.521,0.521,0,0,0,0-.724,0.5,0.5,0,0,0-.355-0.15v-3.069a0.5,0.5,0,0,0,.355-0.15,0.521,0.521,0,0,0,0-.724,0.5,0.5,0,0,0-.355-0.15v-3.07a0.491,0.491,0,0,0,.355-0.15,0.52,0.52,0,0,0,0-.723,0.5,0.5,0,0,0-.355-0.15v-3.07a0.5,0.5,0,0,0,.355-0.15,0.521,0.521,0,0,0,0-.724,0.5,0.5,0,0,0-.448-0.14,2.219,2.219,0,0,0-.928-1.032H163.5v17.4h0Zm-20.354-13.152a0.521,0.521,0,0,0,0,.724,0.493,0.493,0,0,0,.707,0,0.521,0.521,0,0,0,0-.724A0.492,0.492,0,0,0,143.146,210.266Zm2,2.046a0.519,0.519,0,0,0,0,.724,0.493,0.493,0,0,0,.707,0,0.521,0.521,0,0,0,0-.724A0.493,0.493,0,0,0,145.147,212.312Zm2.707,2.77a0.52,0.52,0,0,0,0-.723,0.493,0.493,0,0,0-.708,0,0.522,0.522,0,0,0,0,.723A0.493,0.493,0,0,0,147.854,215.082Zm-4.708-.723a0.52,0.52,0,0,0,0,.723,0.492,0.492,0,0,0,.707,0,0.52,0.52,0,0,0,0-.723A0.492,0.492,0,0,0,143.146,214.359Zm6.707,2.77a0.521,0.521,0,0,0,0-.724,0.493,0.493,0,0,0-.707,0,0.521,0.521,0,0,0,0,.724A0.492,0.492,0,0,0,149.853,217.129Zm-4.706-.724a0.519,0.519,0,0,0,0,.724,0.492,0.492,0,0,0,.707,0,0.521,0.521,0,0,0,0-.724A0.493,0.493,0,0,0,145.147,216.405Zm4.706-3.369a0.521,0.521,0,0,0,0-.724,0.493,0.493,0,0,0-.707,0,0.521,0.521,0,0,0,0,.724A0.493,0.493,0,0,0,149.853,213.036Zm-2-2.046a0.521,0.521,0,0,0,0-.724,0.493,0.493,0,0,0-.708,0,0.523,0.523,0,0,0,0,.724A0.494,0.494,0,0,0,147.854,210.99Zm-4.708,7.462a0.52,0.52,0,0,0,0,.723,0.492,0.492,0,0,0,.707,0,0.52,0.52,0,0,0,0-.723A0.492,0.492,0,0,0,143.146,218.452Zm2,2.046a0.519,0.519,0,0,0,0,.724,0.492,0.492,0,0,0,.707,0,0.521,0.521,0,0,0,0-.724A0.493,0.493,0,0,0,145.147,220.5Zm2.707,2.771a0.522,0.522,0,0,0,0-.725,0.494,0.494,0,0,0-.708,0,0.524,0.524,0,0,0,0,.725A0.494,0.494,0,0,0,147.854,223.269Zm-4.708-.725a0.522,0.522,0,0,0,0,.725,0.493,0.493,0,0,0,.707,0,0.522,0.522,0,0,0,0-.725A0.493,0.493,0,0,0,143.146,222.544Zm6.707,2.771a0.52,0.52,0,0,0,0-.723,0.49,0.49,0,0,0-.707,0,0.52,0.52,0,0,0,0,.723A0.492,0.492,0,0,0,149.853,225.315Zm-4.706-.723a0.518,0.518,0,0,0,0,.723,0.492,0.492,0,0,0,.707,0,0.52,0.52,0,0,0,0-.723A0.49,0.49,0,0,0,145.147,224.592Zm4.706-3.37a0.521,0.521,0,0,0,0-.724,0.493,0.493,0,0,0-.707,0,0.521,0.521,0,0,0,0,.724A0.492,0.492,0,0,0,149.853,221.222Zm-2-2.047a0.52,0.52,0,0,0,0-.723,0.493,0.493,0,0,0-.708,0,0.522,0.522,0,0,0,0,.723A0.493,0.493,0,0,0,147.854,219.175Zm6.5-9.209a0.519,0.519,0,0,0,0-.724,0.492,0.492,0,0,0-.706,0,0.519,0.519,0,0,0,0,.724A0.49,0.49,0,0,0,154.353,209.966Zm2,2.046a0.52,0.52,0,0,0,0-.723,0.493,0.493,0,0,0-.708,0,0.52,0.52,0,0,0,0,.723A0.491,0.491,0,0,0,156.354,212.012Zm2,2.047a0.519,0.519,0,0,0,0-.724,0.493,0.493,0,0,0-.707,0,0.521,0.521,0,0,0,0,.724A0.49,0.49,0,0,0,158.353,214.059Zm-4,0a0.519,0.519,0,0,0,0-.724,0.492,0.492,0,0,0-.706,0,0.519,0.519,0,0,0,0,.724A0.489,0.489,0,0,0,154.353,214.059Zm4-4.093a0.519,0.519,0,0,0,0-.724,0.493,0.493,0,0,0-.707,0,0.521,0.521,0,0,0,0,.724A0.492,0.492,0,0,0,158.353,209.966Zm-2-2.047a0.521,0.521,0,0,0,0-.724,0.494,0.494,0,0,0-.708,0,0.521,0.521,0,0,0,0,.724A0.493,0.493,0,0,0,156.354,207.919Zm-2,10.233a0.518,0.518,0,0,0,0-.723,0.49,0.49,0,0,0-.706,0,0.518,0.518,0,0,0,0,.723A0.49,0.49,0,0,0,154.353,218.152Zm2,2.047a0.521,0.521,0,0,0,0-.724,0.493,0.493,0,0,0-.708,0,0.521,0.521,0,0,0,0,.724A0.494,0.494,0,0,0,156.354,220.2Zm2,2.046a0.518,0.518,0,0,0,0-.723,0.492,0.492,0,0,0-.707,0,0.52,0.52,0,0,0,0,.723A0.492,0.492,0,0,0,158.353,222.245Zm-4,0a0.518,0.518,0,0,0,0-.723,0.49,0.49,0,0,0-.706,0,0.518,0.518,0,0,0,0,.723A0.49,0.49,0,0,0,154.353,222.245Zm4-4.093a0.518,0.518,0,0,0,0-.723,0.492,0.492,0,0,0-.707,0,0.52,0.52,0,0,0,0,.723A0.492,0.492,0,0,0,158.353,218.152Zm-2-2.046a0.521,0.521,0,0,0,0-.724,0.494,0.494,0,0,0-.708,0,0.521,0.521,0,0,0,0,.724A0.493,0.493,0,0,0,156.354,216.106Zm4-4.094a0.518,0.518,0,0,0,0-.723,0.49,0.49,0,0,0-.706,0,0.518,0.518,0,0,0,0,.723A0.489,0.489,0,0,0,160.353,212.012Zm2,2.047a0.523,0.523,0,0,0,0-.724,0.494,0.494,0,0,0-.708,0,0.521,0.521,0,0,0,0,.724A0.491,0.491,0,0,0,162.354,214.059Zm0-4.093a0.523,0.523,0,0,0,0-.724,0.494,0.494,0,0,0-.708,0,0.521,0.521,0,0,0,0,.724A0.493,0.493,0,0,0,162.354,209.966Zm-2-2.047a0.519,0.519,0,0,0,0-.724,0.492,0.492,0,0,0-.706,0,0.519,0.519,0,0,0,0,.724A0.49,0.49,0,0,0,160.353,207.919Zm0,12.28a0.519,0.519,0,0,0,0-.724,0.49,0.49,0,0,0-.706,0,0.519,0.519,0,0,0,0,.724A0.492,0.492,0,0,0,160.353,220.2Zm2,2.046a0.522,0.522,0,0,0,0-.723,0.493,0.493,0,0,0-.708,0,0.52,0.52,0,0,0,0,.723A0.493,0.493,0,0,0,162.354,222.245Zm0-4.093a0.522,0.522,0,0,0,0-.723,0.493,0.493,0,0,0-.708,0,0.52,0.52,0,0,0,0,.723A0.493,0.493,0,0,0,162.354,218.152Zm-2-2.046a0.519,0.519,0,0,0,0-.724,0.492,0.492,0,0,0-.706,0,0.519,0.519,0,0,0,0,.724A0.49,0.49,0,0,0,160.353,216.106Z" transform="translate(-141 -205)"/>
</svg>
