<svg xmlns="http://www.w3.org/2000/svg" width="12" height="32" viewBox="0 0 12 32">
  <metadata><?xpacket begin="﻿" id="W5M0MpCehiHzreSzNTczkc9d"?>
<x:xmpmeta xmlns:x="adobe:ns:meta/" x:xmptk="Adobe XMP Core 5.6-c138 79.159824, 2016/09/14-01:09:01        ">
   <rdf:RDF xmlns:rdf="http://www.w3.org/1999/02/22-rdf-syntax-ns#">
      <rdf:Description rdf:about=""/>
   </rdf:RDF>
</x:xmpmeta>
                                                                                                    
                                                                                                    
                                                                                                    
                                                                                                    
                                                                                                    
                                                                                                    
                                                                                                    
                                                                                                    
                                                                                                    
                                                                                                    
                                                                                                    
                                                                                                    
                                                                                                    
                                                                                                    
                                                                                                    
                                                                                                    
                                                                                                    
                                                                                                    
                                                                                                    
                                                                                                    
                           
<?xpacket end="w"?></metadata>
<defs>
    <style>
      .cls-1 {
        fill: #fff;
        fill-rule: evenodd;
      }
    </style>
  </defs>
  <path id="Ковровые_дорожки" data-name="Ковровые дорожки" class="cls-1" d="M330.684,200a0.47,0.47,0,0,0-.316.533V201.6h-0.631v-1.067a0.36,0.36,0,1,0-.632,0V201.6h-0.631v-1.067a0.36,0.36,0,1,0-.632,0V201.6h-0.631v-1.067a0.36,0.36,0,1,0-.632,0V201.6h-0.632v-1.067a0.36,0.36,0,1,0-.631,0V201.6h-0.632v-1.067a0.36,0.36,0,1,0-.631,0V201.6h-0.632v-1.067a0.36,0.36,0,1,0-.632,0V201.6h-0.631v-1.067a0.36,0.36,0,1,0-.632,0V201.6H320.9v-1.067a0.36,0.36,0,1,0-.632,0V201.6h-0.632v-1.067a0.36,0.36,0,1,0-.631,0v30.933a0.36,0.36,0,1,0,.631,0V230.4h0.632v1.066a0.36,0.36,0,1,0,.632,0V230.4h0.631v1.066a0.36,0.36,0,1,0,.632,0V230.4h0.631v1.066a0.36,0.36,0,1,0,.632,0V230.4h0.632v1.066a0.36,0.36,0,1,0,.631,0V230.4h0.632v1.066a0.36,0.36,0,1,0,.631,0V230.4h0.632v1.066a0.36,0.36,0,1,0,.631,0V230.4h0.632v1.066a0.36,0.36,0,1,0,.632,0V230.4h0.631v1.066a0.36,0.36,0,1,0,.632,0V230.4h0.631v1.066a0.36,0.36,0,1,0,.632,0V200.533A0.47,0.47,0,0,0,330.684,200Zm-11.053,2.666h10.737v26.667H319.631V202.666Zm9.79,25.6a0.2,0.2,0,0,0,.043,0l0.009,0a0.267,0.267,0,0,0,.08-0.042l0.007-.006a0.231,0.231,0,0,0,.036-0.034,0,0,0,0,1,0,0,0.37,0.37,0,0,0,.032-0.043l0.007-.011a0.359,0.359,0,0,0,.027-0.047l0,0a0.453,0.453,0,0,0,.023-0.055l0.006-.015a0.632,0.632,0,0,0,.018-0.062v0a0.015,0.015,0,0,1,0-.006,0.531,0.531,0,0,0,.012-0.06,0.11,0.11,0,0,0,0-.018c0-.022.006-0.044,0.007-0.067a0.049,0.049,0,0,1,0-.012c0-.013,0-0.027,0-0.041V204.266a0.471,0.471,0,0,0-.316-0.533h-8.842a0.471,0.471,0,0,0-.316.533v23.467a0.471,0.471,0,0,0,.316.533h8.842Zm-8.526-8.533h0.631v1.6a0.471,0.471,0,0,0,.316.533h0.947v1.6a0.472,0.472,0,0,0,.316.534h0.948v1.066h-0.948a0.471,0.471,0,0,0-.316.533v1.6H320.9v-7.467h0Zm2.526,7.467v-1.067h0.947a0.47,0.47,0,0,0,.316-0.534v-2.133a0.47,0.47,0,0,0-.316-0.533h-0.947v-1.6a0.47,0.47,0,0,0-.316-0.533h-0.947v-1.6a0.471,0.471,0,0,0-.316-0.534H320.9v-0.845L322,215.954l6.659,11.246h-5.238Zm4.737-9.6H327.21V216a0.47,0.47,0,0,0-.315-0.533h-0.948V214.4H326.9a0.469,0.469,0,0,0,.315-0.533v-1.6h0.948a0.471,0.471,0,0,0,.316-0.533v-1.6h0.631v9.6h-0.631v-1.6A0.47,0.47,0,0,0,328.158,217.6Zm0.947-8.534h-0.947a0.472,0.472,0,0,0-.316.534v1.6H326.9a0.47,0.47,0,0,0-.316.533v1.6h-0.947a0.47,0.47,0,0,0-.316.533V216a0.47,0.47,0,0,0,.316.534h0.947v1.6a0.47,0.47,0,0,0,.316.533h0.947v1.6a0.471,0.471,0,0,0,.316.534h0.947v5.645L322.446,215.2l6.158-10.4h0.5v4.266h0Zm-7.328,5.756-0.882,1.49V211.2h0.947a0.472,0.472,0,0,0,.316-0.534v-1.6h0.947a0.471,0.471,0,0,0,.316-0.533v-1.6h0.947a0.47,0.47,0,0,0,.316-0.534v-1.6h3.027Zm2.276-10.022v1.066h-0.948a0.471,0.471,0,0,0-.316.533V208h-0.947a0.47,0.47,0,0,0-.316.533v1.6H320.9V204.8h3.158Z" transform="translate(-319 -200)"/>
</svg>
