<svg xmlns="http://www.w3.org/2000/svg" width="24" height="30" viewBox="0 0 24 30">
  <metadata><?xpacket begin="﻿" id="W5M0MpCehiHzreSzNTczkc9d"?>
<x:xmpmeta xmlns:x="adobe:ns:meta/" x:xmptk="Adobe XMP Core 5.6-c138 79.159824, 2016/09/14-01:09:01        ">
   <rdf:RDF xmlns:rdf="http://www.w3.org/1999/02/22-rdf-syntax-ns#">
      <rdf:Description rdf:about=""/>
   </rdf:RDF>
</x:xmpmeta>
                                                                                                    
                                                                                                    
                                                                                                    
                                                                                                    
                                                                                                    
                                                                                                    
                                                                                                    
                                                                                                    
                                                                                                    
                                                                                                    
                                                                                                    
                                                                                                    
                                                                                                    
                                                                                                    
                                                                                                    
                                                                                                    
                                                                                                    
                                                                                                    
                                                                                                    
                                                                                                    
                           
<?xpacket end="w"?></metadata>
<defs>
    <style>
      .cls-1 {
        fill: #fff;
        fill-rule: evenodd;
      }
    </style>
  </defs>
  <path id="Ковры" class="cls-1" d="M578.368,201a0.578,0.578,0,0,0-.631.5v1h-1.263v-1a0.649,0.649,0,0,0-1.263,0v1h-1.264v-1a0.649,0.649,0,0,0-1.263,0v1h-1.263v-1a0.649,0.649,0,0,0-1.263,0v1H568.9v-1a0.649,0.649,0,0,0-1.263,0v1h-1.264v-1a0.649,0.649,0,0,0-1.263,0v1h-1.263v-1a0.649,0.649,0,0,0-1.263,0v1h-1.263v-1a0.649,0.649,0,0,0-1.263,0v1h-1.264v-1a0.649,0.649,0,0,0-1.263,0v1h-1.263v-1a0.649,0.649,0,0,0-1.263,0v29a0.649,0.649,0,0,0,1.263,0v-1h1.263v1a0.649,0.649,0,0,0,1.263,0v-1h1.264v1a0.649,0.649,0,0,0,1.263,0v-1h1.263v1a0.649,0.649,0,0,0,1.263,0v-1h1.263v1a0.649,0.649,0,0,0,1.263,0v-1h1.264v1a0.649,0.649,0,0,0,1.263,0v-1h1.263v1a0.649,0.649,0,0,0,1.263,0v-1h1.263v1a0.649,0.649,0,0,0,1.263,0v-1h1.263v1a0.65,0.65,0,0,0,1.264,0v-1h1.263v1a0.649,0.649,0,0,0,1.263,0v-29A0.578,0.578,0,0,0,578.368,201Zm-1.894,9v16.955a0.491,0.491,0,0,1-.218.417,1.285,1.285,0,0,1-.757.128H558.158a0.579,0.579,0,0,1-.632-0.5V205a0.578,0.578,0,0,1,.632-0.5h17.684a0.578,0.578,0,0,1,.632.5v5h0Zm-16.421-1a0.577,0.577,0,0,1,.631-0.5h1.895V207a0.578,0.578,0,0,1,.631-0.5h1.895v-1h-6.316v5h1.264V209h0Zm1.84,6.249,13.318,10.543V220.5h-1.895a0.578,0.578,0,0,1-.632-0.5v-1.5H570.79a0.579,0.579,0,0,1-.632-0.5v-1.5h-1.895a0.577,0.577,0,0,1-.631-0.5v-2a0.577,0.577,0,0,1,.631-0.5h1.895V212a0.578,0.578,0,0,1,.632-0.5h1.894V210a0.578,0.578,0,0,1,.632-0.5h1.895v-4h-1ZM575.21,219.5v-9h-1.263V212a0.578,0.578,0,0,1-.631.5h-1.895V214a0.578,0.578,0,0,1-.632.5H568.9v1h1.894a0.578,0.578,0,0,1,.632.5v1.5h1.895a0.578,0.578,0,0,1,.631.5v1.5h1.263Zm-2.787-14h-6.055V207a0.577,0.577,0,0,1-.631.5h-1.895V209a0.578,0.578,0,0,1-.632.5h-1.894V211a0.577,0.577,0,0,1-.632.5h-1.895v4.794l1.764-1.4Zm-7.318,18H563.21a0.577,0.577,0,0,1-.631-0.5v-1.5h-1.895a0.577,0.577,0,0,1-.631-0.5v-1.5h-1.264v7h3.79V225a0.577,0.577,0,0,1,.631-0.5h1.895v-1h0Zm-6.316-5.792V218.5h1.895a0.578,0.578,0,0,1,.632.5v1.5h1.894a0.578,0.578,0,0,1,.632.5v1.5h1.895a0.578,0.578,0,0,1,.631.5v2a0.578,0.578,0,0,1-.631.5h-1.895v1h10.475L561,215.956Z" transform="translate(-555 -201)"/>
</svg>
