<svg xmlns="http://www.w3.org/2000/svg" width="24" height="16" viewBox="0 0 24 16">
  <metadata><?xpacket begin="﻿" id="W5M0MpCehiHzreSzNTczkc9d"?>
<x:xmpmeta xmlns:x="adobe:ns:meta/" x:xmptk="Adobe XMP Core 5.6-c138 79.159824, 2016/09/14-01:09:01        ">
   <rdf:RDF xmlns:rdf="http://www.w3.org/1999/02/22-rdf-syntax-ns#">
      <rdf:Description rdf:about=""/>
   </rdf:RDF>
</x:xmpmeta>
                                                                                                    
                                                                                                    
                                                                                                    
                                                                                                    
                                                                                                    
                                                                                                    
                                                                                                    
                                                                                                    
                                                                                                    
                                                                                                    
                                                                                                    
                                                                                                    
                                                                                                    
                                                                                                    
                                                                                                    
                                                                                                    
                                                                                                    
                                                                                                    
                                                                                                    
                                                                                                    
                           
<?xpacket end="w"?></metadata>
<defs>
    <style>
      .cls-1 {
        fill: #fff;
        fill-rule: evenodd;
      }
    </style>
  </defs>
  <path id="Коврики" class="cls-1" d="M1136.39,207h-18.78a2.642,2.642,0,0,0-2.61,2.667v10.667a2.641,2.641,0,0,0,2.61,2.666h18.78a2.641,2.641,0,0,0,2.61-2.666V209.666A2.642,2.642,0,0,0,1136.39,207Zm1.57,13.334a1.591,1.591,0,0,1-1.57,1.6h-18.78a1.591,1.591,0,0,1-1.57-1.6V219.8h21.92v0.534Zm0-1.6h-21.92v-7.467h21.92v7.467Zm0-8.533h-21.92v-0.534a1.591,1.591,0,0,1,1.57-1.6h18.78a1.591,1.591,0,0,1,1.57,1.6V210.2Z" transform="translate(-1115 -207)"/>
</svg>
