<svg xmlns="http://www.w3.org/2000/svg" width="21" height="21" viewBox="0 0 21 21">
  <metadata><?xpacket begin="﻿" id="W5M0MpCehiHzreSzNTczkc9d"?>
<x:xmpmeta xmlns:x="adobe:ns:meta/" x:xmptk="Adobe XMP Core 5.6-c138 79.159824, 2016/09/14-01:09:01        ">
   <rdf:RDF xmlns:rdf="http://www.w3.org/1999/02/22-rdf-syntax-ns#">
      <rdf:Description rdf:about=""/>
   </rdf:RDF>
</x:xmpmeta>
                                                                                                    
                                                                                                    
                                                                                                    
                                                                                                    
                                                                                                    
                                                                                                    
                                                                                                    
                                                                                                    
                                                                                                    
                                                                                                    
                                                                                                    
                                                                                                    
                                                                                                    
                                                                                                    
                                                                                                    
                                                                                                    
                                                                                                    
                                                                                                    
                                                                                                    
                                                                                                    
                           
<?xpacket end="w"?></metadata>
<defs>
    <style>
      .cls-1 {
        fill: #fff;
        fill-rule: evenodd;
      }
    </style>
  </defs>
  <path id="Линолеум" class="cls-1" d="M709.65,205h-20.3a0.331,0.331,0,0,0-.35.35v20.3a0.33,0.33,0,0,0,.35.349h20.3a0.33,0.33,0,0,0,.35-0.349v-2h0V219.7h0v-3.954h0V211.79s0-.01,0-0.015a0.134,0.134,0,0,0,0-.02V205.35A0.331,0.331,0,0,0,709.65,205Zm-2.73,15.435-0.553-.554a0.358,0.358,0,0,0-.077-0.111l-1.733-1.733,1.47-1.47,3.273,3.273v2.975Zm-7.98,4.865-0.823-.823,5.933-5.932,1.472,1.472-1.643,1.672a0.342,0.342,0,0,0-.109.076l-3.535,3.535H698.94Zm-6.825-19.565h2.065l4.9,4.9-1.4,1.4-0.066.067-4.206-4.229a0.357,0.357,0,0,0-.112-0.077l-1.638-1.639Zm14.945-.036,2.24,2.275v2.94l-4.76-4.76L705,205.7h2.065Zm2.24,13.161h0l-2.958-2.979a0.456,0.456,0,0,0-.052-0.066l-1.733-1.732,1.47-1.47,3.273,3.273v2.975h0Zm-17.63-8.741,1.476-1.463,5.934,5.934-1.47,1.47-4.2-4.2Zm1.476,2.492,5.934,5.934-1.47,1.469-4.2-4.2-1.74-1.74Zm4.956,7.9,1.748-1.718,4.2-4.2,1.452,1.452-5.932,5.933Zm1.468-2.488-1.453-1.452,1.733-1.732,4.2-4.2,1.452,1.453Zm0-3.955-1.466-1.474,5.927-5.928,1.47,1.47Zm-9.871,2,1.47-1.47,1.47,1.47L689.7,219v-2.94h0Zm1.96,1.994,1.47-1.47,5.932,5.933-1.452,1.453-4.2-4.2a0.374,0.374,0,0,0-.112-0.077Zm-1.96-9.939,1.47-1.47,1.487,1.487-1.732,1.732h0L689.7,211.09v-2.975h0Zm0,3.955,1.477-1.463,1.463,1.5-1.715,1.715-1.225,1.224V212.07h0Zm0,7.944,1.47-1.434,1.47,1.469-1.715,1.716-1.225,1.224v-2.975h0Zm16.642-8.09a0.442,0.442,0,0,0-.052-0.064l-1.733-1.733,1.47-1.47,3.273,3.273V214.9ZM709.3,205.7v1.261l-1.26-1.261h1.26Zm-9.73,4.411-1.47-1.47,2.94-2.941h2.975Zm0.455-4.411-2.433,2.433L695.16,205.7h4.865Zm-10.325,0h1.435l-0.21.211-1.225,1.225V205.7Zm0,18.271,1.477-1.463,1.48,1.48-1.312,1.313H689.7v-1.33Zm2.66,1.33,0.8-.805,0.805,0.805h-1.61Zm2.625,0-3.28-3.316,1.465-1.452,4.2,4.173,0.6,0.595h-2.975Zm9.065-2.8,1.487,1.488-1.312,1.313H701.25Zm1.155,2.8,0.822-.823,0.823,0.823h-1.645Zm4.095,0h-1.435l-1.575-1.575a0.357,0.357,0,0,0-.112-0.077l-1.638-1.638,1.487-1.488L709.3,223.8V225.3h0Z" transform="translate(-689 -205)"/>
</svg>
