<svg xmlns="http://www.w3.org/2000/svg" width="44" height="44" viewBox="0 0 44 44">
  <metadata><?xpacket begin="﻿" id="W5M0MpCehiHzreSzNTczkc9d"?>
<x:xmpmeta xmlns:x="adobe:ns:meta/" x:xmptk="Adobe XMP Core 5.6-c138 79.159824, 2016/09/14-01:09:01        ">
   <rdf:RDF xmlns:rdf="http://www.w3.org/1999/02/22-rdf-syntax-ns#">
      <rdf:Description rdf:about=""/>
   </rdf:RDF>
</x:xmpmeta>
                                                                                                    
                                                                                                    
                                                                                                    
                                                                                                    
                                                                                                    
                                                                                                    
                                                                                                    
                                                                                                    
                                                                                                    
                                                                                                    
                                                                                                    
                                                                                                    
                                                                                                    
                                                                                                    
                                                                                                    
                                                                                                    
                                                                                                    
                                                                                                    
                                                                                                    
                                                                                                    
                           
<?xpacket end="w"?></metadata>
<defs>
    <style>
      .cls-1 {
        fill: #6f1f71;
        fill-rule: evenodd;
      }
    </style>
  </defs>
  <path class="cls-1" d="M200.667,629.133a8.048,8.048,0,0,0-4.654,1.467h-8.546a0.734,0.734,0,1,0,0,1.467h6.965A8.012,8.012,0,0,0,192.9,635h-5.434a0.733,0.733,0,1,0,0,1.466h5.166c-0.021.242-.033,0.486-0.033,0.734a8.138,8.138,0,0,0,.3,2.2h-5.434a0.733,0.733,0,1,0,0,1.466h6A8.07,8.07,0,1,0,200.667,629.133Zm0,14.667a6.572,6.572,0,0,1-6.6-6.6,6.69,6.69,0,0,1,.114-1.227,0.839,0.839,0,0,0,.027-0.146,6.562,6.562,0,0,1,2.416-3.856,0.813,0.813,0,0,0,.161-0.12A6.6,6.6,0,1,1,200.667,643.8Zm4.033-10.193a0.721,0.721,0,0,0-1.027.22l-3.886,5.866-2.274-2.273a0.726,0.726,0,0,0-1.026,1.027l2.933,2.933a0.664,0.664,0,0,0,.513.22,0.582,0.582,0,0,0,.587-0.367l4.4-6.6A0.72,0.72,0,0,0,204.7,633.607ZM214.6,613H186a3.631,3.631,0,0,0-3.667,3.667v30.066H177.2a2.161,2.161,0,0,0-2.2,2.2V652.6a4.413,4.413,0,0,0,4.4,4.4h27.867a4.362,4.362,0,0,0,2.933-1.173,4.187,4.187,0,0,0,1.467-3.227V623.267H216.8a2.161,2.161,0,0,0,2.2-2.2V617.4A4.413,4.413,0,0,0,214.6,613Zm-35.2,42.533a2.942,2.942,0,0,1-2.933-2.933v-3.667a0.734,0.734,0,0,1,.733-0.733h25.667v4.4a4.286,4.286,0,0,0,1.1,2.933H179.4ZM210.2,617.4v35.2a3.051,3.051,0,0,1-.953,2.2,3.386,3.386,0,0,1-1.878.739c-0.033,0-.067-0.006-0.1-0.006a2.9,2.9,0,0,1-1.378-.346,3.129,3.129,0,0,1-1.556-2.734v-4.986a0.693,0.693,0,0,0-.733-0.734H183.8V616.667a2.16,2.16,0,0,1,2.2-2.2h25.3a5.048,5.048,0,0,0-.39.546,4.362,4.362,0,0,0-.7,2.179C210.2,617.261,210.2,617.33,210.2,617.4Zm7.333,3.667a0.735,0.735,0,0,1-.733.733h-5.133v-4.4a2.933,2.933,0,0,1,5.866,0v3.667Zm-24.933-2.2h8.8a0.734,0.734,0,0,0,0-1.467h-8.8A0.734,0.734,0,0,0,192.6,618.867Zm-5.133,4.4h19.066a0.734,0.734,0,1,0,0-1.467H187.467A0.734,0.734,0,1,0,187.467,623.267Zm0,4.4h19.066a0.734,0.734,0,1,0,0-1.467H187.467A0.734,0.734,0,1,0,187.467,627.667Z" transform="translate(-175 -613)"/>
</svg>
