<svg xmlns="http://www.w3.org/2000/svg" width="47" height="47" viewBox="0 0 47 47">
  <metadata><?xpacket begin="﻿" id="W5M0MpCehiHzreSzNTczkc9d"?>
<x:xmpmeta xmlns:x="adobe:ns:meta/" x:xmptk="Adobe XMP Core 5.6-c138 79.159824, 2016/09/14-01:09:01        ">
   <rdf:RDF xmlns:rdf="http://www.w3.org/1999/02/22-rdf-syntax-ns#">
      <rdf:Description rdf:about=""/>
   </rdf:RDF>
</x:xmpmeta>
                                                                                                    
                                                                                                    
                                                                                                    
                                                                                                    
                                                                                                    
                                                                                                    
                                                                                                    
                                                                                                    
                                                                                                    
                                                                                                    
                                                                                                    
                                                                                                    
                                                                                                    
                                                                                                    
                                                                                                    
                                                                                                    
                                                                                                    
                                                                                                    
                                                                                                    
                                                                                                    
                           
<?xpacket end="w"?></metadata>
<defs>
    <style>
      .cls-1 {
        fill: #6f1f71;
        fill-rule: evenodd;
      }
    </style>
  </defs>
  <path id="Forma_1" data-name="Forma 1" class="cls-1" d="M209.208,518.521v21.541a0.979,0.979,0,0,1-.979.979H186.687a0.979,0.979,0,0,1-.979-0.979v-10.77H183.75v10.77A2.936,2.936,0,0,0,186.687,543h21.542a2.937,2.937,0,0,0,2.938-2.937V518.521h-1.959Zm-18.6,3.917h-8.812a6.862,6.862,0,0,0-6.855,6.854H176.9a4.9,4.9,0,0,1,4.9-4.9H190.6a1.958,1.958,0,0,1,0,3.916h-8.813v1.959H190.6A3.917,3.917,0,1,0,190.6,522.438Zm-17.625,2.937a0.979,0.979,0,0,0-.979.979v0.979h4.9v-1.958h-3.917Zm8.813,13.708a4.9,4.9,0,0,1-4.9-4.9h-1.959a6.863,6.863,0,0,0,6.855,6.854h2.937v-1.958h-2.937ZM172,536.146v0.979a0.979,0.979,0,0,0,.979.979H176.9v-1.958H172Zm37.208-38.187h-6.854a3.917,3.917,0,1,0,0,7.833h8.813v-1.958h-8.813a1.959,1.959,0,0,1,0-3.917h6.854a4.9,4.9,0,0,1,4.9,4.9h1.958A6.863,6.863,0,0,0,209.208,497.959Zm8.813,2.937H214.1v1.958H219v-0.979A0.98,0.98,0,0,0,218.021,500.9Zm-3.917,8.813a4.9,4.9,0,0,1-4.9,4.9h-6.854v1.959h6.854a6.862,6.862,0,0,0,6.854-6.854H214.1Zm0,1.958v1.958h3.917a0.979,0.979,0,0,0,.979-0.979v-0.979h-4.9Zm-7.3-7.124-1.884.534a9.769,9.769,0,1,1-4.084-5.536l1.069-1.641A11.748,11.748,0,1,0,206.806,504.543Zm-13.264.27h3.916v-1.958h-3.916a2.938,2.938,0,1,0,0,5.875h3.916v-1.959h-3.916A0.979,0.979,0,1,1,193.542,504.813Zm3.916,1.958h-3.917v1.958h3.917a0.98,0.98,0,0,1,0,1.959h-3.917a0.98,0.98,0,0,1-.979-0.979H190.6a2.937,2.937,0,0,0,2.937,2.937h3.917A2.938,2.938,0,1,0,197.458,506.771Zm-2.937,4.9h1.958V514.6h-1.958v-2.937Zm0-10.771h1.958v2.938h-1.958V500.9Zm-7.834,15.667a2.937,2.937,0,0,0-2.937,2.937v3.917h1.958V519.5a0.979,0.979,0,0,1,.979-0.979H190.6v-1.958h-3.917Zm1.959,0.979H190.6v5.875h-1.958v-5.875Zm6.854,0.979v6.854h-1.958v1.958h2.937a0.979,0.979,0,0,0,.979-0.979v-7.833H195.5Zm5.875,18.6h5.875v1.958h-5.875v-1.958Zm0-3.917h5.875v1.958h-5.875v-1.958Z" transform="translate(-172 -496)"/>
</svg>
