<svg xmlns="http://www.w3.org/2000/svg" width="44" height="36" viewBox="0 0 44 36">
  <metadata><?xpacket begin="﻿" id="W5M0MpCehiHzreSzNTczkc9d"?>
<x:xmpmeta xmlns:x="adobe:ns:meta/" x:xmptk="Adobe XMP Core 5.6-c138 79.159824, 2016/09/14-01:09:01        ">
   <rdf:RDF xmlns:rdf="http://www.w3.org/1999/02/22-rdf-syntax-ns#">
      <rdf:Description rdf:about=""/>
   </rdf:RDF>
</x:xmpmeta>
                                                                                                    
                                                                                                    
                                                                                                    
                                                                                                    
                                                                                                    
                                                                                                    
                                                                                                    
                                                                                                    
                                                                                                    
                                                                                                    
                                                                                                    
                                                                                                    
                                                                                                    
                                                                                                    
                                                                                                    
                                                                                                    
                                                                                                    
                                                                                                    
                                                                                                    
                                                                                                    
                           
<?xpacket end="w"?></metadata>
<defs>
    <style>
      .cls-1 {
        fill: #6f1f71;
        fill-rule: evenodd;
      }
    </style>
  </defs>
  <path class="cls-1" d="M199.459,444.98h11.73a0.694,0.694,0,0,0,.733-0.735v-6.612a0.694,0.694,0,0,0-.733-0.735h-11.73a0.693,0.693,0,0,0-.733.735v6.612A0.693,0.693,0,0,0,199.459,444.98Zm0.733-6.613h10.263v5.143H200.192v-5.143Zm-20.527-2.939h5.865a0.735,0.735,0,0,0,0-1.469h-5.865A0.735,0.735,0,0,0,179.665,435.428Zm8.8,0h5.864a0.735,0.735,0,0,0,0-1.469h-5.864A0.735,0.735,0,0,0,188.463,435.428Zm-8.8,2.939H189.2a0.735,0.735,0,0,0,0-1.469h-9.531A0.735,0.735,0,0,0,179.665,438.367Zm14.662-1.469h-2.2a0.735,0.735,0,0,0,0,1.469h2.2A0.735,0.735,0,0,0,194.327,436.9Zm25-9.11a2.726,2.726,0,0,0-1.979-1.1l-1.76-.214v-3.533A2.944,2.944,0,0,0,212.655,420H178.932A2.944,2.944,0,0,0,176,422.939v23.51a2.95,2.95,0,0,0,2.1,2.817,2.858,2.858,0,0,0,2.591,2.914L214.561,456h0.293a2.937,2.937,0,0,0,2.932-2.5l2.2-23.584A2.86,2.86,0,0,0,219.326,427.788Zm-41.86-2.645h36.655v4.408H177.466v-4.408Zm1.466-3.674h33.723a1.472,1.472,0,0,1,1.466,1.47v0.734H177.466v-0.734A1.472,1.472,0,0,1,178.932,421.469Zm-1.466,24.98V431.02h36.655v15.429a1.472,1.472,0,0,1-1.466,1.469H178.932A1.472,1.472,0,0,1,177.466,446.449Zm41.053-16.825-2.2,23.584a1.48,1.48,0,0,1-1.613,1.323l-33.795-3.821a1.483,1.483,0,0,1-1.32-1.322h33.063a2.945,2.945,0,0,0,2.932-2.939V427.861l1.686,0.147a1.251,1.251,0,0,1,.953.514A1.488,1.488,0,0,1,218.519,429.624Z" transform="translate(-176 -420)"/>
</svg>
