<svg xmlns="http://www.w3.org/2000/svg" width="50" height="59" viewBox="0 0 50 59">
  <metadata><?xpacket begin="﻿" id="W5M0MpCehiHzreSzNTczkc9d"?>
<x:xmpmeta xmlns:x="adobe:ns:meta/" x:xmptk="Adobe XMP Core 5.6-c138 79.159824, 2016/09/14-01:09:01        ">
   <rdf:RDF xmlns:rdf="http://www.w3.org/1999/02/22-rdf-syntax-ns#">
      <rdf:Description rdf:about=""/>
   </rdf:RDF>
</x:xmpmeta>
                                                                                                    
                                                                                                    
                                                                                                    
                                                                                                    
                                                                                                    
                                                                                                    
                                                                                                    
                                                                                                    
                                                                                                    
                                                                                                    
                                                                                                    
                                                                                                    
                                                                                                    
                                                                                                    
                                                                                                    
                                                                                                    
                                                                                                    
                                                                                                    
                                                                                                    
                                                                                                    
                           
<?xpacket end="w"?></metadata>
<defs>
    <style>
      .cls-1 {
        fill: #6f1f71;
        fill-rule: evenodd;
      }
    </style>
  </defs>
  <path id="_14" data-name="14" class="cls-1" d="M186.964,1668.95a6.9,6.9,0,0,1,1.659-.84,5.673,5.673,0,0,0,2.975-2.08,5.543,5.543,0,0,0,.312-3.56,5.994,5.994,0,0,1-.05-2.09,5.643,5.643,0,0,1,1.056-1.7,4.33,4.33,0,0,0,0-6.65,5.751,5.751,0,0,1-1.057-1.7,5.988,5.988,0,0,1,.05-2.09,5.549,5.549,0,0,0-.312-3.56,5.687,5.687,0,0,0-2.982-2.08,5.718,5.718,0,0,1-1.814-.97,5.828,5.828,0,0,1-.982-1.81,5.6,5.6,0,0,0-2.084-2.96,5.659,5.659,0,0,0-3.585-.31,6.171,6.171,0,0,1-2.1.05,5.756,5.756,0,0,1-1.709-1.05,4.377,4.377,0,0,0-6.683,0,5.989,5.989,0,0,1-1.713,1.05,6.171,6.171,0,0,1-2.1-.05,4.276,4.276,0,0,0-5.666,3.27,5.831,5.831,0,0,1-.983,1.81,5.724,5.724,0,0,1-1.813.97,5.683,5.683,0,0,0-2.982,2.08,5.55,5.55,0,0,0-.313,3.56,5.97,5.97,0,0,1,.051,2.09,5.774,5.774,0,0,1-1.051,1.7,4.325,4.325,0,0,0-.006,6.65,5.771,5.771,0,0,1,1.057,1.7,5.964,5.964,0,0,1-.051,2.09,5.556,5.556,0,0,0,.313,3.56,5.683,5.683,0,0,0,2.982,2.08,6.9,6.9,0,0,1,1.659.84L148,1687.22l7.461-1.13,2.712,6.91,10.992-18.21c0.162,0.12.325,0.24,0.488,0.37a4.382,4.382,0,0,0,6.688,0c0.168-.13.332-0.25,0.494-0.37L187.827,1693l2.712-6.91,7.461,1.13Zm-28.418,19.66-1.839-4.68-4.9.75,8.354-13.83,0.015,0.04a5.6,5.6,0,0,0,2.084,2.96,5.659,5.659,0,0,0,3.585.31,12.432,12.432,0,0,1,1.5-.12Zm16.605-14.99a4.341,4.341,0,0,1-2.151,1.15,4.343,4.343,0,0,1-2.153-1.15,7.171,7.171,0,0,0-2.4-1.38,4.78,4.78,0,0,0-1.19-.15,13.161,13.161,0,0,0-1.659.15,4.307,4.307,0,0,1-2.361-.07,4.2,4.2,0,0,1-1.256-2.03,5.408,5.408,0,0,0-3.854-3.83,4.251,4.251,0,0,1-2.038-1.25,4.187,4.187,0,0,1-.067-2.34,7.336,7.336,0,0,0,0-2.84,7.138,7.138,0,0,0-1.4-2.39,2.564,2.564,0,0,1,0-4.28,7,7,0,0,0,1.394-2.38,7.336,7.336,0,0,0,0-2.84,4.2,4.2,0,0,1,.065-2.34,4.251,4.251,0,0,1,2.038-1.25,5.4,5.4,0,0,0,3.854-3.83,4.243,4.243,0,0,1,1.257-2.03,4.293,4.293,0,0,1,2.357-.07,5.454,5.454,0,0,0,5.256-1.38,4.324,4.324,0,0,1,2.147-1.15,4.343,4.343,0,0,1,2.153,1.15,5.441,5.441,0,0,0,5.251,1.38,4.29,4.29,0,0,1,2.356.07,4.2,4.2,0,0,1,1.256,2.03,5.408,5.408,0,0,0,3.854,3.83,4.251,4.251,0,0,1,2.038,1.25,4.187,4.187,0,0,1,.067,2.34,7.336,7.336,0,0,0,0,2.84,7.118,7.118,0,0,0,1.394,2.39,2.564,2.564,0,0,1,0,4.28,7,7,0,0,0-1.394,2.38,7.336,7.336,0,0,0,0,2.84,4.2,4.2,0,0,1-.065,2.34,4.251,4.251,0,0,1-2.038,1.25,5.4,5.4,0,0,0-3.854,3.83,4.243,4.243,0,0,1-1.257,2.03,4.293,4.293,0,0,1-2.357.07A5.444,5.444,0,0,0,175.151,1673.62Zm14.139,10.31-1.836,4.68-8.793-14.57a12.448,12.448,0,0,1,1.5.12,4.275,4.275,0,0,0,5.664-3.27l0.015-.04,8.351,13.83Zm-23.154-39.36a0.948,0.948,0,0,0,.493-0.13,13.243,13.243,0,0,1,2.419-1.08,0.024,0.024,0,0,0,.023-0.01,0.968,0.968,0,1,0-.632-1.83,14.27,14.27,0,0,0-2.791,1.24,0.989,0.989,0,0,0-.487.84A0.969,0.969,0,0,0,166.136,1644.57Zm10.744-1.24a12.621,12.621,0,0,1,2.423,1.07,0.935,0.935,0,0,0,.488.13h0a0.968,0.968,0,0,0,.488-1.81,14.951,14.951,0,0,0-2.8-1.23,0.975,0.975,0,0,0-1.149.59A0.957,0.957,0,0,0,176.88,1643.33Zm-14.956,5.04a0.968,0.968,0,0,0,.792-0.41,12.749,12.749,0,0,1,1.77-1.96h0a0.966,0.966,0,0,0,.064-1.37,0.978,0.978,0,0,0-1.379-.07,14.3,14.3,0,0,0-2.04,2.27,0.941,0.941,0,0,0-.186.56A0.978,0.978,0,0,0,161.924,1648.37Zm22.652,1.81a12.405,12.405,0,0,1,.828,2.5,0.975,0.975,0,0,0,.953.77,1.436,1.436,0,0,0,.208-0.02,0.979,0.979,0,0,0,.748-1.16,14.641,14.641,0,0,0-.957-2.89A0.976,0.976,0,1,0,184.576,1650.18Zm-3.117-4.23a12.353,12.353,0,0,1,1.782,1.95,0.973,0.973,0,0,0,1.569-1.15,14.722,14.722,0,0,0-2.05-2.25,0.167,0.167,0,0,1-.04-0.04,0.985,0.985,0,0,0-1.375.12A0.969,0.969,0,0,0,181.459,1645.95Zm4.9,7.5h0Zm-26.932.06a1.342,1.342,0,0,0,.2.02h0a0.971,0.971,0,0,0,.953-0.77,12.512,12.512,0,0,1,.812-2.51,0.034,0.034,0,0,1,.011-0.02,0.977,0.977,0,0,0-1.795-.77,14.4,14.4,0,0,0-.939,2.9h0A0.971,0.971,0,0,0,159.426,1653.51Zm24.6-5.21h0Zm-8.667-6.37a0.969,0.969,0,0,0-.874-1.06,14.874,14.874,0,0,0-3.057.01,0.968,0.968,0,0,0,.1,1.93h0.112a13.058,13.058,0,0,1,2.652-.01A0.981,0.981,0,0,0,175.362,1641.93Zm10.523,18.06a0.994,0.994,0,0,0-1.289.49,12.418,12.418,0,0,1-1.327,2.29,0.943,0.943,0,0,0-.187.57,0.969,0.969,0,0,0,.975.97,0.984,0.984,0,0,0,.791-0.4,14.726,14.726,0,0,0,1.531-2.63A0.977,0.977,0,0,0,185.885,1659.99Zm-4.38,4.74a13.272,13.272,0,0,1-2.147,1.56,0.96,0.96,0,0,0-.487.83,0.984,0.984,0,0,0,.975.98l0-.01a0.883,0.883,0,0,0,.5-0.13,14.755,14.755,0,0,0,2.472-1.79,0.966,0.966,0,0,0,.071-1.37A0.978,0.978,0,0,0,181.505,1664.73Zm-21.869-5.55a1.4,1.4,0,0,0,.205-0.02,0.971,0.971,0,0,0,.751-1.15,12.633,12.633,0,0,1-.28-2.63,0.976,0.976,0,0,0-1.952,0,14.508,14.508,0,0,0,.323,3.03,0.972,0.972,0,0,0,.953.77h0Zm17.3,8.18a12.732,12.732,0,0,1-2.591.55,0.967,0.967,0,0,0,.1,1.93h0.1a14.57,14.57,0,0,0,2.992-.64,0.214,0.214,0,0,0,.077-0.02A0.972,0.972,0,1,0,176.934,1667.36Zm10.706-12.08a0.945,0.945,0,0,0-.976-0.92,0.99,0.99,0,0,0-.976.99,12.692,12.692,0,0,1-.274,2.63h0a0.973,0.973,0,0,0,.754,1.15,1.355,1.355,0,0,0,.2.02h0a0.971,0.971,0,0,0,.952-0.77,14.566,14.566,0,0,0,.316-3.03v-0.07Zm-15.951,12.63a12.755,12.755,0,0,1-2.594-.54,0.194,0.194,0,0,0-.1-0.03,0.968,0.968,0,1,0-.5,1.87,15.271,15.271,0,0,0,3,.63h0.1l0,0.01A0.971,0.971,0,1,0,171.689,1667.91Zm-8.943-5.12a12.633,12.633,0,0,1-1.331-2.28,0.981,0.981,0,0,0-1.262-.48,0.969,0.969,0,0,0-.52,1.27,14.407,14.407,0,0,0,1.536,2.63,0.981,0.981,0,0,0,.789.4,0.927,0.927,0,0,0,.576-0.19A0.959,0.959,0,0,0,162.746,1662.79Zm3.923,3.51a12.68,12.68,0,0,1-2.147-1.55,0.04,0.04,0,0,0-.022-0.02,0.985,0.985,0,0,0-1.377.09,0.967,0.967,0,0,0,.095,1.37,14.819,14.819,0,0,0,2.475,1.79,1.04,1.04,0,0,0,.488.13h0A0.968,0.968,0,0,0,166.669,1666.3Zm1.986-16.25-3.384.37v0.97l2.038-.03V1660h1.346v-9.95Zm9.413,0h-1.422l-4.388,6.9v0.76h4.471V1660h1.339v-2.29h1.374v-1.06h-1.374v-6.6Zm-1.51,2.27,0.129-.35,0.042,0.01v4.67h-3.036Z" transform="translate(-148 -1634)"/>
</svg>
