<svg xmlns="http://www.w3.org/2000/svg" width="61" height="62" viewBox="0 0 61 62">
  <metadata><?xpacket begin="﻿" id="W5M0MpCehiHzreSzNTczkc9d"?>
<x:xmpmeta xmlns:x="adobe:ns:meta/" x:xmptk="Adobe XMP Core 5.6-c138 79.159824, 2016/09/14-01:09:01        ">
   <rdf:RDF xmlns:rdf="http://www.w3.org/1999/02/22-rdf-syntax-ns#">
      <rdf:Description rdf:about=""/>
   </rdf:RDF>
</x:xmpmeta>
                                                                                                    
                                                                                                    
                                                                                                    
                                                                                                    
                                                                                                    
                                                                                                    
                                                                                                    
                                                                                                    
                                                                                                    
                                                                                                    
                                                                                                    
                                                                                                    
                                                                                                    
                                                                                                    
                                                                                                    
                                                                                                    
                                                                                                    
                                                                                                    
                                                                                                    
                                                                                                    
                           
<?xpacket end="w"?></metadata>
<defs>
    <style>
      .cls-1 {
        fill: #6f1f71;
        fill-rule: evenodd;
      }
    </style>
  </defs>
  <path id="Forma_1" data-name="Forma 1" class="cls-1" d="M171.287,1789.59a15.62,15.62,0,0,1-5.287-1.25,20.043,20.043,0,0,1,1.74-2.5,0.413,0.413,0,0,0-.58-0.58,20.74,20.74,0,0,1-2.5,1.73,15.65,15.65,0,0,1-1.248-5.28,0.414,0.414,0,0,0-.821,0,15.655,15.655,0,0,1-1.247,5.28,20.661,20.661,0,0,1-2.5-1.73,0.413,0.413,0,0,0-.581.58,20.723,20.723,0,0,1,1.741,2.5,15.62,15.62,0,0,1-5.287,1.25,0.413,0.413,0,0,0,0,.82,15.62,15.62,0,0,1,5.287,1.25,21.547,21.547,0,0,1-1.741,2.5,0.414,0.414,0,0,0,.581.58,20.661,20.661,0,0,1,2.5-1.73,15.655,15.655,0,0,1,1.247,5.28,0.414,0.414,0,0,0,.821,0,15.674,15.674,0,0,1,1.248-5.28,20.74,20.74,0,0,1,2.5,1.73,0.4,0.4,0,0,0,.252.09h0a0.418,0.418,0,0,0,.414-0.42,0.423,0.423,0,0,0-.108-0.28,20.238,20.238,0,0,1-1.72-2.47,15.613,15.613,0,0,1,5.287-1.25A0.413,0.413,0,0,0,171.287,1789.59ZM163,1784.5a9.75,9.75,0,0,0,.9,2.84,2.617,2.617,0,0,1-1.8,0A9.78,9.78,0,0,0,163,1784.5Zm-5.5,5.5a9.61,9.61,0,0,0,2.841-.9,2.615,2.615,0,0,1,0,1.8A9.61,9.61,0,0,0,157.5,1790Zm5.5,5.5a9.677,9.677,0,0,0-.9-2.84,2.62,2.62,0,0,1,1.8,0A9.68,9.68,0,0,0,163,1795.5Zm0-3.83a4.827,4.827,0,0,0-2.613.94c1.26-2,1.26-3.22,0-5.22a4.1,4.1,0,0,0,5.226,0c-1.26,2-1.261,3.22,0,5.22A4.822,4.822,0,0,0,163,1791.67Zm2.657-.77a2.643,2.643,0,0,1,0-1.81,9.59,9.59,0,0,0,2.841.91A9.62,9.62,0,0,0,165.657,1790.9ZM163,1779.67A10.33,10.33,0,1,0,173.329,1790,10.338,10.338,0,0,0,163,1779.67Zm0,19.83a9.5,9.5,0,1,1,9.5-9.5A9.51,9.51,0,0,1,163,1799.5Zm0-26.21A16.71,16.71,0,1,0,179.71,1790,16.731,16.731,0,0,0,163,1773.29Zm0,32.59A15.88,15.88,0,1,1,178.882,1790,15.9,15.9,0,0,1,163,1805.88Zm0-34.88a19,19,0,1,0,19,19A19.019,19.019,0,0,0,163,1771Zm0,37.17A18.17,18.17,0,1,1,181.172,1790,18.191,18.191,0,0,1,163,1808.17Zm15.488-17.96a0.411,0.411,0,0,0,0-.62,20.98,20.98,0,0,1-1.591-1.54,20.357,20.357,0,0,1,1.118-1.86,0.415,0.415,0,0,0-.162-0.6,20.864,20.864,0,0,1-1.934-1.07,19.677,19.677,0,0,1,.6-2.08,0.409,0.409,0,0,0-.033-0.34,0.387,0.387,0,0,0-.278-0.2,20.142,20.142,0,0,1-2.147-.54,19.826,19.826,0,0,1,.041-2.16,0.4,0.4,0,0,0-.121-0.32,0.386,0.386,0,0,0-.32-0.12c-0.544.03-1.953,0.04-2.212,0.03a19.41,19.41,0,0,1-.522-2.1,0.412,0.412,0,0,0-.2-0.28,0.408,0.408,0,0,0-.341-0.03,19.941,19.941,0,0,1-2.126.61,19.551,19.551,0,0,1-1.048-1.9,0.424,0.424,0,0,0-.264-0.21,0.442,0.442,0,0,0-.338.05,17.944,17.944,0,0,1-1.9,1.14c-0.264-.24-1.345-1.38-1.5-1.56a0.417,0.417,0,0,0-.623,0c-0.157.18-1.152,1.24-1.537,1.59-0.1-.05-1.291-0.74-1.855-1.11a0.308,0.308,0,0,0-.079-0.05,0.456,0.456,0,0,0-.259-0.01,0.408,0.408,0,0,0-.265.22c-0.156.31-.849,1.58-1.072,1.93a19.158,19.158,0,0,1-2.082-.6,0.446,0.446,0,0,0-.34.03,0.433,0.433,0,0,0-.2.28,19.633,19.633,0,0,1-.535,2.15c-0.243.01-1.623,0-2.166-.04a0.419,0.419,0,0,0-.32.12,0.4,0.4,0,0,0-.121.32,19.722,19.722,0,0,1,.039,2.21,19.36,19.36,0,0,1-2.1.52,0.448,0.448,0,0,0-.278.2,0.417,0.417,0,0,0-.034.34,20.551,20.551,0,0,1,.61,2.13,20.178,20.178,0,0,1-1.9,1.05,0.413,0.413,0,0,0-.217.26,0.418,0.418,0,0,0,.056.34,19.463,19.463,0,0,1,1.139,1.9,20.291,20.291,0,0,1-1.56,1.5,0.411,0.411,0,0,0,0,.62,20.611,20.611,0,0,1,1.591,1.54,20.357,20.357,0,0,1-1.118,1.86,0.4,0.4,0,0,0-.055.33,0.428,0.428,0,0,0,.217.27,20.608,20.608,0,0,1,1.934,1.07,20.383,20.383,0,0,1-.6,2.08,0.409,0.409,0,0,0,.033.34,0.387,0.387,0,0,0,.279.2,20.062,20.062,0,0,1,2.146.54,19.816,19.816,0,0,1-.04,2.16,0.407,0.407,0,0,0,.12.32,0.387,0.387,0,0,0,.321.12c0.544-.03,1.008-0.05,1.463-0.05,0.243,0,.489.01,0.748,0.02a19.41,19.41,0,0,1,.522,2.1,0.435,0.435,0,0,0,.2.28,0.5,0.5,0,0,0,.207.05,0.6,0.6,0,0,0,.134-0.02,19.941,19.941,0,0,1,2.126-.61,19.135,19.135,0,0,1,1.048,1.9,0.423,0.423,0,0,0,.265.21,0.4,0.4,0,0,0,.107.02,0.466,0.466,0,0,0,.23-0.07,18.045,18.045,0,0,1,1.9-1.14,19.931,19.931,0,0,1,1.5,1.56,0.417,0.417,0,0,0,.623,0,18.9,18.9,0,0,1,1.537-1.59,19.233,19.233,0,0,1,1.856,1.11,0.452,0.452,0,0,0,.337.06,0.408,0.408,0,0,0,.265-0.22,19.343,19.343,0,0,1,1.073-1.93,19.208,19.208,0,0,1,2.081.6,0.611,0.611,0,0,0,.134.02,0.388,0.388,0,0,0,.207-0.06,0.416,0.416,0,0,0,.2-0.27,19.864,19.864,0,0,1,.535-2.15c0.243-.01,1.623,0,2.166.04h0.03a0.41,0.41,0,0,0,.414-0.41,0.439,0.439,0,0,0-.005-0.07,19.428,19.428,0,0,1-.036-2.17,17.225,17.225,0,0,1,2.1-.52,0.453,0.453,0,0,0,.279-0.2,0.421,0.421,0,0,0,.033-0.34,20.551,20.551,0,0,1-.61-2.13,20.178,20.178,0,0,1,1.9-1.05,0.41,0.41,0,0,0,.161-0.6,19.463,19.463,0,0,1-1.139-1.9A20.291,20.291,0,0,1,178.488,1790.21Zm-0.9-.31c-0.394.35-.737,0.69-1.084,1.05a0.366,0.366,0,0,0-.169-0.09,0.441,0.441,0,0,0-.337.05c-0.069.05-.137,0.09-0.2,0.14-0.378-.4-0.747-0.76-1.177-1.15,0.421-.38.783-0.74,1.153-1.13,0.057,0.04.115,0.08,0.175,0.12a0.383,0.383,0,0,0,.23.07c0.036,0,.072-0.01.107-0.01a0.493,0.493,0,0,0,.2-0.13C176.839,1789.19,177.189,1789.53,177.592,1789.9Zm-4.285,3.08a18.666,18.666,0,0,1,.979,1.6c-0.573.16-1.125,0.29-1.79,0.43a0.4,0.4,0,0,0-.278.19,0.413,0.413,0,0,0-.033.34c0.223,0.66.387,1.21,0.531,1.8-0.127,0-1.3-.01-1.839-0.05a0.414,0.414,0,0,0-.441.44c0.046,0.69.063,1.27,0.049,1.88-0.579-.15-1.122-0.31-1.764-0.53a0.408,0.408,0,0,0-.34.04,0.4,0.4,0,0,0-.2.27c-0.134.68-.267,1.24-0.437,1.83-0.523-.29-1-0.59-1.569-0.97a0.441,0.441,0,0,0-.337-0.05,0.423,0.423,0,0,0-.265.21,18.635,18.635,0,0,1-.894,1.65c-0.431-.41-0.82-0.82-1.266-1.33a0.4,0.4,0,0,0-.623,0c-0.455.52-.851,0.93-1.29,1.36-0.309-.52-0.578-1.01-0.877-1.62a0.407,0.407,0,0,0-.6-0.16c-0.574.38-1.065,0.68-1.6,0.98-0.166-.58-0.3-1.13-0.428-1.79a0.414,0.414,0,0,0-.2-0.28,0.448,0.448,0,0,0-.34-0.04c-0.655.23-1.206,0.39-1.8,0.54-0.012-.6,0-1.17.049-1.84a0.407,0.407,0,0,0-.12-0.32,0.387,0.387,0,0,0-.32-0.12c-0.544.03-1.009,0.05-1.463,0.05-0.135,0-.272,0-0.411-0.01,0.143-.57.305-1.12,0.524-1.76a0.413,0.413,0,0,0-.033-0.34,0.418,0.418,0,0,0-.279-0.2c-0.677-.13-1.237-0.27-1.822-0.44,0.288-.52.585-1,0.963-1.57a0.4,0.4,0,0,0,.056-0.33,0.431,0.431,0,0,0-.217-0.27c-0.62-.3-1.126-0.58-1.647-0.89,0.413-.43.825-0.82,1.336-1.27a0.411,0.411,0,0,0,0-.62c-0.52-.46-0.939-0.85-1.36-1.29,0.511-.31,1.01-0.58,1.618-0.88a0.41,0.41,0,0,0,.217-0.26,0.415,0.415,0,0,0-.056-0.34,18.646,18.646,0,0,1-.978-1.6c0.573-.16,1.124-0.3,1.789-0.43a0.386,0.386,0,0,0,.278-0.2,0.41,0.41,0,0,0,.034-0.34c-0.223-.65-0.388-1.2-0.532-1.79,0.127-.01,1.3.01,1.839,0.05h0.028a0.451,0.451,0,0,0,.293-0.12,0.435,0.435,0,0,0,.12-0.32c-0.046-.69-0.062-1.27-0.049-1.88,0.58,0.15,1.123.31,1.764,0.53a0.611,0.611,0,0,0,.134.02,0.388,0.388,0,0,0,.207-0.06,0.412,0.412,0,0,0,.2-0.28c0.134-.67.267-1.23,0.438-1.82,0.522,0.29,1,.59,1.568.97a0.469,0.469,0,0,0,.23.07h0a0.452,0.452,0,0,0,.372-0.24c0.246-.5.472-0.92,0.717-1.34q0.087-.15.177-0.3c0.3,0.28,1.128,1.17,1.266,1.33a0.413,0.413,0,0,0,.312.14h0a0.411,0.411,0,0,0,.311-0.14c0.448-.51.837-0.92,1.268-1.33l0.023-.03c0.308,0.51.578,1.01,0.876,1.62a0.41,0.41,0,0,0,.265.22,0.454,0.454,0,0,0,.338-0.06c0.573-.38,1.063-0.68,1.6-0.98,0.167,0.58.3,1.13,0.429,1.79a0.412,0.412,0,0,0,.2.28,0.388,0.388,0,0,0,.207.06,0.611,0.611,0,0,0,.134-0.02c0.654-.23,1.205-0.39,1.8-0.54,0.013,0.6,0,1.17-.049,1.84a0.407,0.407,0,0,0,.12.32,0.386,0.386,0,0,0,.32.12c0.545-.03,1.01-0.05,1.464-0.05h0.41c-0.143.58-.305,1.13-0.524,1.77a0.417,0.417,0,0,0,.033.34,0.453,0.453,0,0,0,.279.2c0.678,0.13,1.238.27,1.822,0.44-0.288.52-.585,1-0.963,1.56a0.423,0.423,0,0,0,.162.61,17.908,17.908,0,0,1,1.646.89c-0.413.43-.825,0.82-1.335,1.27a0.409,0.409,0,0,0,0,.62c0.52,0.45.938,0.85,1.359,1.29-0.51.31-1.009,0.58-1.618,0.88A0.41,0.41,0,0,0,173.307,1792.98Zm-14.182-17.05c0.424,0.28.816,0.51,1.232,0.74a0.233,0.233,0,0,1,.066.04,0.38,0.38,0,0,0-.037.09,0.459,0.459,0,0,0-.01.09,0.4,0.4,0,0,0,.142.31c0.062,0.06.123,0.11,0.183,0.17-0.129.2-.66,1.14-0.807,1.43-0.455-.29-0.872-0.54-1.322-0.79l-0.063-.03c0.022-.07.044-0.13,0.067-0.2a0.41,0.41,0,0,0-.033-0.34,0.377,0.377,0,0,0-.171-0.16C158.562,1776.97,159.054,1776.07,159.125,1775.93Zm3.774-.52c0.154,0.17.847,0.89,1.052,1.08a0.458,0.458,0,0,0-.093.17,0.421,0.421,0,0,0,.056.34c0.046,0.07.091,0.13,0.135,0.2a0.162,0.162,0,0,1-.045.04c-0.384.37-.732,0.72-1.106,1.14-0.11-.12-0.824-0.87-1.088-1.12a0.144,0.144,0,0,1-.036-0.04c0.038-.05.076-0.11,0.116-0.17a0.418,0.418,0,0,0,.056-0.34,0.439,0.439,0,0,0-.124-0.2C162.138,1776.21,162.843,1775.47,162.9,1775.41Zm13.4,12.01a0.4,0.4,0,0,0-.187-0.04,0.414,0.414,0,0,0-.312.14l-0.161.18c-0.469-.29-0.919-0.54-1.434-0.81,0.308-.47.566-0.91,0.822-1.38a1.693,1.693,0,0,1,.2.07,0.611,0.611,0,0,0,.134.02,0.388,0.388,0,0,0,.207-0.06,0.413,0.413,0,0,0,.159-0.17c0.439,0.27.864,0.51,1.348,0.76C176.78,1786.57,176.535,1786.98,176.294,1787.42Zm-1.12-3.35a0.625,0.625,0,0,0-.193,0,0.408,0.408,0,0,0-.264.22c-0.037.07-.073,0.15-0.109,0.22-0.527-.16-1.027-0.29-1.593-0.41,0.174-.54.311-1.03,0.435-1.55,0.069,0,.138.01,0.21,0.01h0.029a0.414,0.414,0,0,0,.4-0.32c0.492,0.14.964,0.26,1.493,0.38C175.423,1783.12,175.293,1783.58,175.174,1784.07Zm-1.928-4.46c-0.026.53-.034,1.01-0.021,1.51a0.4,0.4,0,0,0-.186.05,0.412,0.412,0,0,0-.2.28l-0.048.24c-0.552-.02-1.058-0.01-1.646.02,0.029-.57.035-1.07,0.02-1.61,0.067-.01.136-0.03,0.206-0.04a0.451,0.451,0,0,0,.278-0.2,0.42,0.42,0,0,0,.053-0.23C172.217,1779.64,172.7,1779.64,173.246,1779.61Zm-2.668-.83a0.377,0.377,0,0,0-.165.1,0.4,0.4,0,0,0-.12.32l0.015,0.24c-0.537.13-1.034,0.27-1.585,0.44-0.118-.55-0.243-1.04-0.4-1.56l0.188-.09a0.412,0.412,0,0,0,.218-0.26,0.445,0.445,0,0,0-.008-0.24c0.5-.12.968-0.25,1.485-0.42C170.32,1777.83,170.437,1778.3,170.578,1778.78Zm-3.9-2.9c0.242,0.47.475,0.89,0.736,1.32a0.346,0.346,0,0,0-.133.14,0.41,0.41,0,0,0-.034.34c0.027,0.08.053,0.15,0.078,0.23-0.486.26-.93,0.52-1.416,0.84-0.258-.51-0.5-0.95-0.788-1.41,0.052-.04.1-0.09,0.158-0.14a0.4,0.4,0,0,0,.141-0.31,0.385,0.385,0,0,0-.068-0.22C165.8,1776.42,166.223,1776.17,166.679,1775.88Zm-11.063,1.53c0.506,0.17.966,0.3,1.454,0.42a0.4,0.4,0,0,0,0,.19,0.412,0.412,0,0,0,.218.26c0.074,0.04.147,0.08,0.218,0.11-0.159.53-.287,1.03-0.408,1.6-0.539-.18-1.026-0.32-1.55-0.44,0-.07.008-0.14,0.013-0.21a0.407,0.407,0,0,0-.12-0.32,0.414,0.414,0,0,0-.207-0.11C155.383,1778.42,155.5,1777.94,155.616,1777.41Zm-1.5,2.36a0.409,0.409,0,0,0,.331.39c0.082,0.02.161,0.03,0.24,0.05-0.017.55-.011,1.07,0.018,1.64-0.575-.03-1.071-0.03-1.61-0.02-0.014-.06-0.028-0.13-0.042-0.2a0.409,0.409,0,0,0-.2-0.28,0.367,0.367,0,0,0-.228-0.05c0.013-.52.006-1-0.021-1.55C152.981,1779.77,153.965,1779.78,154.121,1779.77Zm-2.344,2.65a0.474,0.474,0,0,0,.1.17,0.424,0.424,0,0,0,.321.12c0.083-.01.164-0.01,0.243-0.02,0.127,0.54.266,1.04,0.444,1.59-0.554.11-1.044,0.24-1.56,0.39-0.031-.06-0.062-0.12-0.094-0.18a0.406,0.406,0,0,0-.264-0.22,0.374,0.374,0,0,0-.234.01c-0.12-.5-0.253-0.97-0.42-1.49C150.832,1782.68,151.3,1782.56,151.777,1782.42Zm-1.579,3.16a0.36,0.36,0,0,0,.139.14,0.489,0.489,0,0,0,.207.05,0.3,0.3,0,0,0,.133-0.02c0.079-.03.156-0.05,0.232-0.08,0.261,0.49.524,0.93,0.838,1.42-0.5.26-.945,0.51-1.4,0.79-0.045-.05-0.092-0.11-0.139-0.16a0.411,0.411,0,0,0-.311-0.14,0.361,0.361,0,0,0-.224.07c-0.246-.45-0.5-0.87-0.79-1.33C149.352,1786.08,149.77,1785.85,150.2,1785.58Zm-1.79,4.52c0.394-.35.737-0.69,1.084-1.05a0.494,0.494,0,0,0,.168.09,0.411,0.411,0,0,0,.108.02,0.469,0.469,0,0,0,.23-0.07c0.069-.05.136-0.1,0.2-0.14,0.378,0.4.747,0.76,1.177,1.15-0.421.38-.783,0.73-1.153,1.13-0.057-.04-0.115-0.08-0.175-0.12a0.394,0.394,0,0,0-.536.07C149.161,1790.81,148.811,1790.47,148.408,1790.1Zm1.3,2.48a0.4,0.4,0,0,0,.187.04,0.411,0.411,0,0,0,.311-0.14q0.082-.09.162-0.18c0.469,0.29.919,0.54,1.434,0.81-0.308.47-.566,0.91-0.822,1.38a1.759,1.759,0,0,1-.2-0.07,0.42,0.42,0,0,0-.5.21c-0.438-.27-0.864-0.51-1.348-0.76C149.22,1793.43,149.465,1793.02,149.706,1792.58Zm1.12,3.35a0.245,0.245,0,0,0,.085.01,0.385,0.385,0,0,0,.107-0.01,0.408,0.408,0,0,0,.265-0.22c0.037-.08.073-0.15,0.109-0.22,0.528,0.16,1.028.29,1.593,0.41-0.174.54-.311,1.03-0.435,1.55-0.069,0-.138-0.01-0.209-0.01a0.389,0.389,0,0,0-.321.12,0.4,0.4,0,0,0-.11.2c-0.492-.14-0.965-0.26-1.5-0.38C150.577,1796.88,150.707,1796.42,150.826,1795.93Zm1.928,4.46c0.026-.53.034-1.01,0.022-1.51a0.4,0.4,0,0,0,.185-0.05,0.435,0.435,0,0,0,.2-0.28l0.048-.24c0.553,0.01,1.059.01,1.645-.02-0.028.57-.035,1.07-0.019,1.61-0.067.01-.136,0.03-0.206,0.04a0.411,0.411,0,0,0-.331.43c-0.167-.01-0.331-0.01-0.494-0.01C153.467,1800.36,153.125,1800.37,152.754,1800.39Zm2.668,0.83a0.383,0.383,0,0,0,.165-0.1,0.407,0.407,0,0,0,.12-0.32l-0.015-.24c0.537-.13,1.034-0.27,1.585-0.44,0.119,0.55.243,1.04,0.4,1.56l-0.188.09a0.415,0.415,0,0,0-.218.26,0.445,0.445,0,0,0,.008.24c-0.5.12-.968,0.25-1.485,0.42C155.68,1802.17,155.563,1801.7,155.422,1801.22Zm3.9,2.9c-0.242-.47-0.475-0.89-0.736-1.32a0.355,0.355,0,0,0,.134-0.14,0.413,0.413,0,0,0,.033-0.34c-0.027-.08-0.053-0.15-0.078-0.23,0.486-.26.93-0.52,1.416-0.84,0.258,0.51.506,0.95,0.788,1.41-0.051.04-.1,0.09-0.157,0.14a0.4,0.4,0,0,0-.142.31,0.41,0.41,0,0,0,.068.22C160.2,1803.58,159.777,1803.83,159.321,1804.12Zm3.78,0.47c-0.356-.39-0.689-0.74-1.052-1.08a0.458,0.458,0,0,0,.093-0.17,0.415,0.415,0,0,0-.056-0.34c-0.046-.07-0.091-0.14-0.135-0.2,0.4-.38.762-0.75,1.151-1.18,0.379,0.42.733,0.78,1.125,1.15q-0.057.09-.117,0.18a0.418,0.418,0,0,0-.056.34,0.5,0.5,0,0,0,.124.2C163.806,1803.84,163.466,1804.19,163.1,1804.59Zm3.774-.52c-0.446-.29-0.857-0.54-1.3-0.78a0.372,0.372,0,0,0,.047-0.18,0.4,0.4,0,0,0-.142-0.31c-0.062-.06-0.123-0.11-0.183-0.17,0.291-.47.543-0.92,0.807-1.43,0.476,0.31.911,0.57,1.385,0.82-0.022.07-.044,0.13-0.067,0.2a0.413,0.413,0,0,0,.033.34,0.446,0.446,0,0,0,.171.16C167.36,1803.16,167.122,1803.58,166.875,1804.07Zm3.509-1.48c-0.506-.17-0.966-0.3-1.453-0.42a0.407,0.407,0,0,0,0-.19,0.413,0.413,0,0,0-.217-0.26c-0.075-.04-0.148-0.08-0.219-0.11,0.159-.53.287-1.03,0.408-1.6a16.081,16.081,0,0,0,1.551.44c0,0.07-.009.14-0.014,0.21a0.41,0.41,0,0,0,.327.43C170.617,1801.58,170.5,1802.06,170.384,1802.59Zm1.5-2.37a0.411,0.411,0,0,0-.331-0.38c-0.082-.02-0.161-0.03-0.24-0.05,0.017-.55.011-1.07-0.018-1.64,0.575,0.02,1.072.03,1.611,0.02,0.013,0.06.027,0.13,0.041,0.2a0.412,0.412,0,0,0,.2.28,0.388,0.388,0,0,0,.207.06c0.007,0,.014-0.01.021-0.01-0.014.52-.006,1,0.021,1.55C172.851,1800.22,172.381,1800.21,171.879,1800.22Zm2.344-2.64a0.474,0.474,0,0,0-.1-0.17,0.424,0.424,0,0,0-.321-0.12c-0.083.01-.163,0.01-0.243,0.02-0.127-.54-0.266-1.04-0.444-1.59,0.554-.12,1.045-0.24,1.561-0.4,0.031,0.07.062,0.13,0.093,0.19a0.408,0.408,0,0,0,.265.22,0.385,0.385,0,0,0,.107.01,0.272,0.272,0,0,0,.126-0.02c0.121,0.5.253,0.97,0.42,1.49C175.168,1797.32,174.7,1797.44,174.223,1797.58Zm1.579-3.17a0.413,0.413,0,0,0-.139-0.13,0.408,0.408,0,0,0-.341-0.03,1.973,1.973,0,0,0-.231.08c-0.261-.49-0.524-0.93-0.838-1.42,0.5-.26.945-0.51,1.4-0.79,0.046,0.05.092,0.11,0.139,0.16a0.411,0.411,0,0,0,.311.14,0.361,0.361,0,0,0,.224-0.07c0.246,0.45.5,0.87,0.79,1.33C176.648,1793.92,176.23,1794.15,175.8,1794.41Zm2.359,28.78a3.1,3.1,0,1,0,1.859,5.58l-0.62-.83a2.06,2.06,0,1,1,.826-1.65,2.022,2.022,0,0,1-.207.9l0.927,0.46A3.1,3.1,0,0,0,178.161,1823.19Zm22.093-14.25a2.062,2.062,0,0,0,1.649.83H205v-4.13h-3.1a2.071,2.071,0,0,0-1.649.84,1.518,1.518,0,0,0-.931-0.32,1.543,1.543,0,0,0-1.454,1.03H183.323v-1.03a5.162,5.162,0,0,0-10.323,0v20.13a5.163,5.163,0,0,0,5.161,5.16h19.708a1.543,1.543,0,0,0,1.454,1.03,1.518,1.518,0,0,0,.931-0.32,2.043,2.043,0,0,0,1.649.84H205v-4.13h-3.1a2.043,2.043,0,0,0-1.649.84,1.618,1.618,0,0,0-.415-0.23v-4.83a1.6,1.6,0,0,0,.415-0.23,2.043,2.043,0,0,0,1.649.84H205v-4.13h-3.1a2.062,2.062,0,0,0-1.649.83,1.587,1.587,0,0,0-.415-0.22v-4.84a1.572,1.572,0,0,0,.415-0.22,2.071,2.071,0,0,0,1.649.84H205v-4.13h-3.1a2.062,2.062,0,0,0-1.649.83,1.587,1.587,0,0,0-.415-0.22v-4.84A1.572,1.572,0,0,0,200.254,1808.94Zm1.649-2.26h2.065v0.51h-1.549v1.04h1.549v0.51H201.9A1.03,1.03,0,1,1,201.9,1806.68Zm0,23.22h2.065v0.52h-1.549v1.03h1.549v0.52H201.9A1.035,1.035,0,0,1,201.9,1829.9Zm0-7.74h2.065v0.52h-1.549v1.03h1.549v0.52H201.9A1.035,1.035,0,0,1,201.9,1822.16Zm0-7.74h2.065v0.52h-1.549v1.03h1.549v0.51H201.9A1.03,1.03,0,1,1,201.9,1814.42Zm-18.58-2.07H192.1v13.94h-8.774v-13.94Zm-0.105,14.97h9.911v-16h-9.806v-1.03h11.354v18.06H182.888A4.9,4.9,0,0,0,183.218,1827.32Zm-9.186-21.16a4.129,4.129,0,1,1,8.258,0v17.05a5.138,5.138,0,0,0-8.258,0v-17.05Zm4.129,24.26a4.13,4.13,0,1,1,4.129-4.13A4.133,4.133,0,0,1,178.161,1830.42Zm19.708,0H181.245a5.2,5.2,0,0,0,1.045-1.05v0.02h14.452v-1.04H195.71v-4.64h1.032v-1.03H195.71v-6.71h1.032v-1.03H195.71v-4.65h1.032v-1.03H183.323v-1.03h14.546a1.539,1.539,0,0,0,.937.93V1814a1.54,1.54,0,0,0-1.032,1.45,1.563,1.563,0,0,0,1.032,1.46v4.83a1.542,1.542,0,0,0,0,2.91v4.83A1.555,1.555,0,0,0,197.869,1830.42Zm1.454,1.03a0.515,0.515,0,1,1,.516-0.51A0.515,0.515,0,0,1,199.323,1831.45Zm0-7.74a0.515,0.515,0,1,1,.516-0.52A0.517,0.517,0,0,1,199.323,1823.71Zm0-7.74a0.515,0.515,0,1,1,.516-0.52A0.517,0.517,0,0,1,199.323,1815.97Zm0-7.74a0.524,0.524,0,0,1-.517-0.52,0.517,0.517,0,1,1,1.033,0A0.523,0.523,0,0,1,199.323,1808.23Z" transform="translate(-144 -1771)"/>
</svg>
