<svg xmlns="http://www.w3.org/2000/svg" width="42" height="38" viewBox="0 0 42 38">
  <metadata><?xpacket begin="﻿" id="W5M0MpCehiHzreSzNTczkc9d"?>
<x:xmpmeta xmlns:x="adobe:ns:meta/" x:xmptk="Adobe XMP Core 5.6-c138 79.159824, 2016/09/14-01:09:01        ">
   <rdf:RDF xmlns:rdf="http://www.w3.org/1999/02/22-rdf-syntax-ns#">
      <rdf:Description rdf:about=""/>
   </rdf:RDF>
</x:xmpmeta>
                                                                                                    
                                                                                                    
                                                                                                    
                                                                                                    
                                                                                                    
                                                                                                    
                                                                                                    
                                                                                                    
                                                                                                    
                                                                                                    
                                                                                                    
                                                                                                    
                                                                                                    
                                                                                                    
                                                                                                    
                                                                                                    
                                                                                                    
                                                                                                    
                                                                                                    
                                                                                                    
                           
<?xpacket end="w"?></metadata>
<defs>
    <style>
      .cls-1 {
        fill: #6f1f71;
        fill-rule: evenodd;
      }
    </style>
  </defs>
  <path id="Forma_1" data-name="Forma 1" class="cls-1" d="M955.989,1656.08A0.544,0.544,0,0,0,956,1656a0.808,0.808,0,0,0,0-.11,0.681,0.681,0,0,0-.014-0.08,0.421,0.421,0,0,0-.031-0.1,0.474,0.474,0,0,0-.015-0.05c-0.006-.01-0.015-0.02-0.022-0.03a0.131,0.131,0,0,0-.016-0.04l-7-11.26a0.73,0.73,0,0,0-.113-0.14h0a0.6,0.6,0,0,0-.208-0.13,0.046,0.046,0,0,1-.026-0.02h-0.024a0.814,0.814,0,0,0-.22-0.04H921.7a0.779,0.779,0,0,0-.217.04h-0.023c-0.01.01-.016,0.01-0.026,0.02a0.755,0.755,0,0,0-.2.12,0.012,0.012,0,0,1-.012.01,0.7,0.7,0,0,0-.114.14l-7,11.26a0.163,0.163,0,0,0-.016.04c-0.006.01-.016,0.02-0.021,0.03a0.226,0.226,0,0,0-.016.05,0.421,0.421,0,0,0-.031.1,0.749,0.749,0,0,0-.019.19,0.728,0.728,0,0,0,.01.08,0.384,0.384,0,0,0,.026.1,0.334,0.334,0,0,0,.031.08,0.134,0.134,0,0,0,.015.04c0.012,0.02.028,0.04,0.041,0.06a0.468,0.468,0,0,0,.027.04l20.3,25.33h0l0,0.01h0.008a0.67,0.67,0,0,0,.206.17l0.063,0.03a0.811,0.811,0,0,0,.268.06,0.672,0.672,0,0,0,.24-0.04,0.057,0.057,0,0,1,.032-0.02c0.035-.02.063-0.04,0.1-0.06a0.8,0.8,0,0,0,.144-0.12c0.01-.01.024-0.01,0.033-0.02l20.3-25.34c0.011-.01.017-0.03,0.028-0.04s0.029-.04.04-0.06a0.163,0.163,0,0,0,.016-0.04,0.382,0.382,0,0,0,.031-0.08A0.486,0.486,0,0,0,955.989,1656.08Zm-19.517-10.67H947.3l-3.4,9.18Zm6.159,9.85H927.37l7.63-9.44Zm-16.572-.61-3.36-9.24h10.83Zm17.062,2.02-8.244,22.24-8.085-22.24h16.329Zm5.341-10.38,5.578,8.97h-8.9Zm-26.931.01,3.258,8.96H915.96Zm3.77,10.37,7.589,20.87-16.731-20.87H925.3Zm11.377,21.41,7.938-21.41h9.225Z" transform="translate(-914 -1644)"/>
</svg>
