<svg xmlns="http://www.w3.org/2000/svg" width="47" height="47" viewBox="0 0 47 47">
  <metadata><?xpacket begin="﻿" id="W5M0MpCehiHzreSzNTczkc9d"?>
<x:xmpmeta xmlns:x="adobe:ns:meta/" x:xmptk="Adobe XMP Core 5.6-c138 79.159824, 2016/09/14-01:09:01        ">
   <rdf:RDF xmlns:rdf="http://www.w3.org/1999/02/22-rdf-syntax-ns#">
      <rdf:Description rdf:about=""/>
   </rdf:RDF>
</x:xmpmeta>
                                                                                                    
                                                                                                    
                                                                                                    
                                                                                                    
                                                                                                    
                                                                                                    
                                                                                                    
                                                                                                    
                                                                                                    
                                                                                                    
                                                                                                    
                                                                                                    
                                                                                                    
                                                                                                    
                                                                                                    
                                                                                                    
                                                                                                    
                                                                                                    
                                                                                                    
                                                                                                    
                           
<?xpacket end="w"?></metadata>
<defs>
    <style>
      .cls-1 {
        fill: #6f1f71;
        fill-rule: evenodd;
      }
    </style>
  </defs>
  <path id="Forma_1" data-name="Forma 1" class="cls-1" d="M565.292,1783.04a4.31,4.31,0,1,0,4.318,4.31A4.314,4.314,0,0,0,565.292,1783.04Zm0,6.62a2.31,2.31,0,1,1,2.317-2.31A2.311,2.311,0,0,1,565.292,1789.66ZM551.21,1823a4.961,4.961,0,0,1-3.512-1.45l-16.247-16.21a4.956,4.956,0,0,1,0-7.01l17.466-17.43c4.4-4.57,15.021-8.23,23.27,0a16.412,16.412,0,0,1,0,23.22l-17.466,17.43A4.959,4.959,0,0,1,551.21,1823Zm-0.878-40.69-17.467,17.43a2.953,2.953,0,0,0,0,4.18l16.247,16.22a3.039,3.039,0,0,0,4.2,0l17.466-17.43a14.421,14.421,0,0,0,0-20.4C566.84,1778.38,557.5,1775.15,550.332,1782.31Zm-5.96,15.58h1.573v7.03h-1.573l-3.359-4.41v4.41h-1.572v-7.03h1.472l3.458,4.52v-4.52h0Zm8.389,0v1.4h-3.509v1.44h3.157v1.34h-3.157v1.46h3.619v1.39h-5.192v-7.03h5.082Zm3.711,4.04,1.25-4.04h1.644l1.241,4.04,1.4-4.04h1.7l-2.461,7.03h-1.17l-1.542-4.89-1.533,4.89h-1.17l-2.461-7.03h1.705Z" transform="translate(-530 -1776)"/>
</svg>
