<svg xmlns="http://www.w3.org/2000/svg" width="39" height="48" viewBox="0 0 39 48">
  <metadata><?xpacket begin="﻿" id="W5M0MpCehiHzreSzNTczkc9d"?>
<x:xmpmeta xmlns:x="adobe:ns:meta/" x:xmptk="Adobe XMP Core 5.6-c138 79.159824, 2016/09/14-01:09:01        ">
   <rdf:RDF xmlns:rdf="http://www.w3.org/1999/02/22-rdf-syntax-ns#">
      <rdf:Description rdf:about=""/>
   </rdf:RDF>
</x:xmpmeta>
                                                                                                    
                                                                                                    
                                                                                                    
                                                                                                    
                                                                                                    
                                                                                                    
                                                                                                    
                                                                                                    
                                                                                                    
                                                                                                    
                                                                                                    
                                                                                                    
                                                                                                    
                                                                                                    
                                                                                                    
                                                                                                    
                                                                                                    
                                                                                                    
                                                                                                    
                                                                                                    
                           
<?xpacket end="w"?></metadata>
<defs>
    <style>
      .cls-1 {
        fill: #6f1f71;
        fill-rule: evenodd;
      }
    </style>
  </defs>
  <path id="Forma_1" data-name="Forma 1" class="cls-1" d="M575.56,1661.2a2.794,2.794,0,0,0-1.77-1.33v-4.14c0-9.22-7.765-16.73-17.309-16.73s-17.308,7.51-17.308,16.73v4.14a2.77,2.77,0,0,0-1.761,1.37,3.776,3.776,0,0,0-.414,1.84v9.11a3.823,3.823,0,0,0,.414,1.83,3.007,3.007,0,0,0,2.879,1.5h1.365a1.77,1.77,0,0,0,1.76,1.68h1.55a1.773,1.773,0,0,0,1.761-1.78v-15.75a1.775,1.775,0,0,0-1.761-1.79h-1.594a1.774,1.774,0,0,0-1.76,1.79v0.07H540.9v-4.01c0-8.24,6.972-14.95,15.547-14.95s15.548,6.71,15.548,14.95v4.01h-0.713v-0.07a1.775,1.775,0,0,0-1.761-1.79h-1.479a1.775,1.775,0,0,0-1.761,1.79v15.81a1.778,1.778,0,0,0,1.567,1.73,5.775,5.775,0,0,1-1.426,3.04c-1.382,1.56-3.636,2.45-6.673,2.68v-0.39a1.863,1.863,0,0,0-1.92-1.79h-3.776a1.863,1.863,0,0,0-1.92,1.79v2.68a1.862,1.862,0,0,0,1.92,1.78h3.812a1.861,1.861,0,0,0,1.919-1.78v-0.5c3.566-.24,6.259-1.33,7.976-3.25a7.671,7.671,0,0,0,1.928-4.27,1.772,1.772,0,0,0,1.655-1.67h1.365a3.007,3.007,0,0,0,2.879-1.5,3.823,3.823,0,0,0,.414-1.83v-9.12A3.808,3.808,0,0,0,575.56,1661.2Zm-32.144,12.61v-12.32a1.782,1.782,0,0,0,0-.31v-1.48l1.479-.04v15.77h-1.479v-1.62Zm-1.76-12.37v12.3h-1.365a1.278,1.278,0,0,1-1.338-.59,2.058,2.058,0,0,1-.194-0.97v-9.1a2.108,2.108,0,0,1,.185-0.99,1.3,1.3,0,0,1,1.338-.58Zm16.4,22.4v1.22a0.237,0.237,0,0,1-.193.13h-3.953v-2.61a0.224,0.224,0,0,1,.176-0.05h3.97v1.31h0Zm11.5-22.35v13.94h-1.488v-15.76h1.515Zm4.455,11.68a1.294,1.294,0,0,1-1.338.59h-1.356v-12.24h1.356a1.278,1.278,0,0,1,1.338.59,2.111,2.111,0,0,1,.194.98v9.11A2.071,2.071,0,0,1,574.01,1673.17Z" transform="translate(-537 -1639)"/>
</svg>
