<svg xmlns="http://www.w3.org/2000/svg" width="43" height="38" viewBox="0 0 43 38">
  <metadata><?xpacket begin="﻿" id="W5M0MpCehiHzreSzNTczkc9d"?>
<x:xmpmeta xmlns:x="adobe:ns:meta/" x:xmptk="Adobe XMP Core 5.6-c138 79.159824, 2016/09/14-01:09:01        ">
   <rdf:RDF xmlns:rdf="http://www.w3.org/1999/02/22-rdf-syntax-ns#">
      <rdf:Description rdf:about=""/>
   </rdf:RDF>
</x:xmpmeta>
                                                                                                    
                                                                                                    
                                                                                                    
                                                                                                    
                                                                                                    
                                                                                                    
                                                                                                    
                                                                                                    
                                                                                                    
                                                                                                    
                                                                                                    
                                                                                                    
                                                                                                    
                                                                                                    
                                                                                                    
                                                                                                    
                                                                                                    
                                                                                                    
                                                                                                    
                                                                                                    
                           
<?xpacket end="w"?></metadata>
<defs>
    <style>
      .cls-1 {
        fill: #6f1f71;
        fill-rule: evenodd;
      }
    </style>
  </defs>
  <path id="Forma_1" data-name="Forma 1" class="cls-1" d="M954.11,1796.87h-0.629v-8.56a3.984,3.984,0,0,0-3.989-3.97h-17.3l-11.671-3.32H920.5a0.021,0.021,0,0,1-.021-0.01h-0.033c-0.01,0-.019-0.01-0.029-0.01H920.3a0.05,0.05,0,0,0-.036.01h-0.024a0.05,0.05,0,0,0-.036.01h-0.022a0.054,0.054,0,0,1-.037.01,0.02,0.02,0,0,1-.02.01c-0.012.01-.024,0.01-0.036,0.02a0.019,0.019,0,0,0-.019.01c-0.012,0-.023.01-0.035,0.01s-0.011.01-.017,0.02a0.053,0.053,0,0,0-.033.02c-0.006,0-.012.01-0.017,0.01l-0.03.03c-0.006,0-.011.01-0.017,0.01l-0.027.03s-0.01.01-.016,0.01l-0.023.03a0.031,0.031,0,0,1-.016.02l-0.019.03-0.015.03a0.034,0.034,0,0,1-.015.02c0,0.01-.009.02-0.013,0.03l-0.012.03-0.011.03a0.041,0.041,0,0,1-.007.02c0,0.01,0,.01,0,0.01s0,0.01,0,.01l-0.72,2.87H916.99a3.98,3.98,0,0,0-3.989,3.95c0,0.01,0,.01,0,0.02v21.71a0.63,0.63,0,0,0,1.26,0v-18.83a3.976,3.976,0,0,0,2.73,1.08h32.5a2.726,2.726,0,0,1,2.727,2.72v4.38H945.29a0.1,0.1,0,0,0-.054.01h-0.068c-0.017.01-.033,0.01-0.049,0.02h-0.011c-0.014,0-.028.01-0.042,0.01a0.015,0.015,0,0,1-.016.01c-0.011.01-.022,0.01-0.033,0.02a0.024,0.024,0,0,0-.023.01c-0.008,0-.016.01-0.025,0.01s-0.019.01-.028,0.02-0.011.01-.017,0.01a0.06,0.06,0,0,1-.032.02,0.226,0.226,0,0,0-.013.02l-0.032.03a0.033,0.033,0,0,0-.018.02,0.043,0.043,0,0,0-.024.02c-0.013.02-.025,0.03-0.037,0.05h0l-3.359,5.01a0.843,0.843,0,0,0-.059.11c-0.006.02-.01,0.03-0.015,0.05,0,0,0,.01,0,0.01,0,0.02-.008.03-0.012,0.05,0,0,0,0,0,.01s0,0.03-.006.04a0.136,0.136,0,0,0,0,.02,0.151,0.151,0,0,0,0,.03c0,0.01,0,.02,0,0.03s0,0.02,0,.03a0.151,0.151,0,0,0,0,.03,0.136,0.136,0,0,0,0,.02c0,0.01,0,.03.007,0.04s0,0.01,0,.01a0.371,0.371,0,0,0,.012.05c0,0.01,0,.01,0,0.01,0.005,0.02.009,0.03,0.015,0.05a0.746,0.746,0,0,0,.06.11l3.359,5.01h0c0.014,0.02.028,0.04,0.044,0.06,0,0,.011.01,0.016,0.01a0.14,0.14,0,0,0,.033.04,0.039,0.039,0,0,1,.021.02l0.038,0.03a0.017,0.017,0,0,1,.017.01l0.059,0.03a0.014,0.014,0,0,0,.015.01,0.1,0.1,0,0,0,.05.02,0.019,0.019,0,0,0,.019.01c0.017,0.01.033,0.01,0.049,0.02h0.021c0.017,0,.034.01,0.052,0.01h0.019a0.148,0.148,0,0,0,.066.01h6.934v4.38a2.727,2.727,0,0,1-2.729,2.72h-32.5a2.728,2.728,0,0,1-2.73-2.72v-2.5a0.63,0.63,0,0,0-1.26,0v2.5c0,0.01,0,.01,0,0.02a3.984,3.984,0,0,0,3.989,3.95h32.5a3.984,3.984,0,0,0,3.989-3.97h0v-4.38h0.63a1.891,1.891,0,0,0,1.889-1.88v-10.02A1.885,1.885,0,0,0,954.11,1796.87ZM920.8,1782.41l11.114,3.15h0l7.449,2.12H919.476Zm31.419,9.69a3.975,3.975,0,0,0-2.729-1.08h-32.5a2.715,2.715,0,1,1,0-5.43H918.7l-0.525,2.09H916.99a0.625,0.625,0,1,0,0,1.25h31.661a0.625,0.625,0,1,0,0-1.25h-4.7l-7.351-2.09h12.89a2.727,2.727,0,0,1,2.729,2.72v3.79Zm2.519,16.67h0a0.627,0.627,0,0,1-.63.62h-8.482l-2.939-4.38,2.939-4.38h8.482c0.009,0,.018-0.01.027-0.01a2,2,0,0,0,.6-0.1v8.25h0Zm-0.63-9.4h-0.629v-1.25h0.629A0.625,0.625,0,1,1,954.11,1799.37Zm-6.3,3.34a2.3,2.3,0,1,0,2.31,2.3A2.306,2.306,0,0,0,947.811,1802.71Zm0,3.34a1.04,1.04,0,1,1,1.05-1.04A1.041,1.041,0,0,1,947.811,1806.05Z" transform="translate(-913 -1781)"/>
</svg>
