<svg xmlns="http://www.w3.org/2000/svg" width="17" height="17" viewBox="0 0 17 17">
  <metadata><?xpacket begin="﻿" id="W5M0MpCehiHzreSzNTczkc9d"?>
<x:xmpmeta xmlns:x="adobe:ns:meta/" x:xmptk="Adobe XMP Core 5.6-c138 79.159824, 2016/09/14-01:09:01        ">
   <rdf:RDF xmlns:rdf="http://www.w3.org/1999/02/22-rdf-syntax-ns#">
      <rdf:Description rdf:about=""/>
   </rdf:RDF>
</x:xmpmeta>
                                                                                                    
                                                                                                    
                                                                                                    
                                                                                                    
                                                                                                    
                                                                                                    
                                                                                                    
                                                                                                    
                                                                                                    
                                                                                                    
                                                                                                    
                                                                                                    
                                                                                                    
                                                                                                    
                                                                                                    
                                                                                                    
                                                                                                    
                                                                                                    
                                                                                                    
                                                                                                    
                           
<?xpacket end="w"?></metadata>
<defs>
    <style>
      .cls-1 {
        fill: #6f1f71;
        fill-rule: evenodd;
      }
    </style>
  </defs>
  <path class="cls-1" d="M966.044,70.931a13.563,13.563,0,0,0-5.089,0,2.935,2.935,0,0,0-1.849,1.771,9.736,9.736,0,0,0,0,4.176,2.936,2.936,0,0,0,1.849,1.772h0a0.069,0.069,0,0,1,.057.068v2.03a0.113,0.113,0,0,0,.194.078l0.964-.989,0.907-.931a0.067,0.067,0,0,1,.051-0.021,13.578,13.578,0,0,0,2.915-.236,2.934,2.934,0,0,0,1.85-1.772,9.736,9.736,0,0,0,0-4.176A2.935,2.935,0,0,0,966.044,70.931Zm0.026,6.051a1.568,1.568,0,0,1-.673.741,1.632,1.632,0,0,1-.29.093c-0.114-.035-0.222-0.058-0.323-0.1a7.325,7.325,0,0,1-2.759-1.844,7.181,7.181,0,0,1-1.055-1.615c-0.135-.275-0.249-0.561-0.366-0.845a0.733,0.733,0,0,1,.215-0.722,1.691,1.691,0,0,1,.568-0.427,0.366,0.366,0,0,1,.457.108,5.869,5.869,0,0,1,.7.988,0.47,0.47,0,0,1-.131.637c-0.054.036-.1,0.079-0.152,0.12a0.493,0.493,0,0,0-.115.121,0.331,0.331,0,0,0-.022.291,2.632,2.632,0,0,0,1.478,1.636,0.756,0.756,0,0,0,.378.092,1.062,1.062,0,0,0,.469-0.414,0.443,0.443,0,0,1,.532-0.024c0.171,0.109.336,0.224,0.5,0.342a5.919,5.919,0,0,1,.471.359A0.374,0.374,0,0,1,966.07,76.981Zm-1.344-2.427c-0.065,0-.04,0-0.015,0a0.166,0.166,0,0,1-.172-0.165,1.741,1.741,0,0,0-.032-0.217,0.613,0.613,0,0,0-.226-0.355,0.577,0.577,0,0,0-.184-0.089c-0.084-.024-0.17-0.018-0.254-0.038a0.156,0.156,0,0,1-.126-0.181,0.163,0.163,0,0,1,.172-0.132,0.937,0.937,0,0,1,.96.933,0.419,0.419,0,0,1,0,.132,0.135,0.135,0,0,1-.114.11h-0.007ZM964.4,73.132a1.846,1.846,0,0,0-.515-0.158c-0.077-.013-0.156-0.02-0.234-0.032a0.156,0.156,0,0,1,.023-0.311,2.144,2.144,0,0,1,.892.233,1.8,1.8,0,0,1,.982,1.4,0.844,0.844,0,0,1,.014.086c0,0.07.008,0.142,0.014,0.235a0.606,0.606,0,0,1-.014.095,0.154,0.154,0,0,1-.291.016,0.411,0.411,0,0,1-.016-0.131,1.65,1.65,0,0,0-.209-0.828A1.538,1.538,0,0,0,964.4,73.132Zm1.746,1.949a0.173,0.173,0,0,1-.165-0.188c-0.014-.194-0.024-0.389-0.05-0.581a2.435,2.435,0,0,0-1.96-2.035c-0.152-.027-0.308-0.034-0.462-0.05a0.222,0.222,0,0,1-.246-0.137,0.166,0.166,0,0,1,.164-0.188c0.026,0,.052,0,0.079,0,1.308,0.037.08,0,0,0a2.767,2.767,0,0,1,2.717,2.288c0.041,0.229.056,0.464,0.074,0.7A0.163,0.163,0,0,1,966.143,75.082ZM955,67V84h17V67H955Zm13.876,10.1,0,0.013a3.882,3.882,0,0,1-2.62,2.521l-0.013,0a14.629,14.629,0,0,1-2.74.26c-0.269,0-.539-0.009-0.808-0.023l-1.242,1.29a0.493,0.493,0,0,1-.848-0.341V79.6a3.916,3.916,0,0,1-2.476-2.484l0-.013a10.719,10.719,0,0,1,0-4.621l0-.014a3.883,3.883,0,0,1,2.621-2.521l0.013,0a14.566,14.566,0,0,1,5.48,0l0.013,0a3.881,3.881,0,0,1,2.62,2.521l0,0.014A10.719,10.719,0,0,1,968.876,77.1Z" transform="translate(-955 -67)"/>
</svg>
